<svg width="180" height="32" viewBox="0 0 180 32" fill="none" xmlns="http://www.w3.org/2000/svg">
<path fill-rule="evenodd" clip-rule="evenodd" d="M11.2289 0.125417C11.7305 0.125417 12.4014 0.292633 13.0722 0.963444C13.742 1.46607 13.742 2.47133 13.5738 3.30936C13.4066 3.97921 13.2384 4.48184 12.4014 4.98447C11.5633 5.4871 10.7253 5.4871 10.7253 5.4871V8.67009L12.2332 10.0107L10.7253 11.1832V15.7078C10.7253 15.7078 12.2332 14.7026 13.2384 12.6911L13.4066 12.3557C13.4066 13.0256 13.4066 14.0318 12.7358 15.5397C12.4004 16.5449 11.5633 17.5511 10.3899 18.221C8.54659 19.2253 7.20593 19.2253 5.69805 19.0581C3.85476 18.5554 2.17869 17.5511 1.17344 15.8751C0.335405 14.7026 0 13.1937 0 11.6859C0.168183 8.66913 2.34592 6.15599 4.86001 5.15073C5.19542 4.98351 5.36264 4.98351 5.86527 4.98351C5.69805 4.98351 5.36264 5.15073 5.02724 5.48614C4.1892 5.9878 3.51935 6.99402 3.18395 7.83205L8.21119 5.65336V12.6911L4.1892 14.7026C4.69183 15.3724 6.03249 16.3786 7.20497 16.3786C9.38366 16.7131 10.5561 15.7088 10.5561 15.7088V11.1842L8.88007 10.0117L10.5561 8.67105V5.48806C9.70771 5.30675 8.86893 5.08286 8.043 4.81725C7.03775 4.65002 4.02102 3.81199 3.68562 3.81199C3.18299 3.64477 2.51218 3.64477 2.17773 3.98017C1.84329 4.31558 1.67607 4.81821 1.84233 5.32084C1.84233 5.65624 2.01051 5.82346 2.17773 5.99069C2.17773 5.99069 2.01051 5.99069 1.67607 5.82347C1.17344 5.48806 0.66985 4.81821 0.66985 3.98017C0.66985 2.97492 1.00526 1.96871 2.01147 1.29886C2.68132 0.796228 3.51935 0.460817 4.52461 0.629C6.03249 0.796223 8.04396 1.63426 9.88725 2.13688C10.5571 2.30411 11.0597 2.30411 11.5633 1.96871C11.7305 1.80148 12.2332 1.46703 11.8987 0.963444C11.3961 0.293594 10.7253 0.2936 10.0554 0.125417C10.5581 -0.0418056 10.7262 -0.0418056 11.2289 0.125417ZM5.19638 14.0337V7.16317L3.18587 8.16842C3.18587 8.16842 2.68324 9.3409 2.68324 11.017C2.85047 12.3576 3.52128 13.8655 4.0239 14.5363L5.19638 14.0337ZM30.666 6.82872C30.666 6.82872 28.99 7.83397 27.9847 8.50478L25.6388 9.67822V16.2124L24.6336 16.8842L24.8008 17.0514L25.6388 16.3815L28.4874 18.8947L33.5146 15.0409L33.3464 14.8727L30.6651 17.0514L28.3192 14.8727V14.2028L32.8438 10.8517L30.666 6.82872ZM30.666 12.1904L28.3201 13.8665V8.33661L30.666 12.1904ZM17.764 21.4069C18.4338 21.4069 19.4391 21.5741 20.947 20.9042C22.4549 20.0671 23.1257 18.5583 23.1257 16.8832L23.2929 14.5363V9.34186L24.1309 8.67201V8.50478L23.1257 9.17464L20.947 6.82872L18.0984 9.17464V0.964412L14.5791 3.64573C14.7463 3.81295 15.2499 3.81296 15.2499 4.65099V16.2124L13.742 17.2176L13.9092 17.3849L14.58 16.8842L16.5906 18.7274L19.7745 16.2124L19.6063 16.0452L18.9365 16.715L18.0984 15.8779V9.51005L18.9365 8.67201L20.4444 10.3481V15.8779C20.4444 17.3849 20.4444 19.2282 19.6063 20.0672C18.7692 21.0705 18.6011 21.0705 17.764 21.4069ZM39.7153 20.737C38.3746 20.5698 37.872 19.8999 37.872 19.2282C37.872 18.8937 38.3746 18.0547 39.0454 18.0547C39.8834 17.8875 40.5533 18.2239 41.2241 19.0609L44.2399 15.7107H44.0727L43.2346 16.5478C42.5648 15.7107 41.3923 15.0399 40.2189 14.8717V4.98543L47.7592 18.8937C47.7592 18.8937 47.9265 19.0609 48.2619 19.0609C48.4291 19.0609 48.4291 18.8937 48.4291 18.8937V4.98543C49.0999 4.81821 49.937 4.4828 50.4396 4.1474C51.9475 2.63951 51.2776 0.964409 51.1104 0.796226C51.1104 1.46704 50.4396 2.13689 49.6025 2.30411C48.4291 2.30411 47.592 1.29886 47.592 1.29886L44.7435 4.65003L44.9116 4.81725L45.7497 3.81199C46.7549 4.81725 47.4257 4.81725 48.2628 4.98543V13.0284L42.5657 2.80674C42.0631 1.96871 41.3933 1.13163 40.0526 1.13163C38.7119 1.13163 37.7067 2.30411 37.5395 3.47659C37.3722 4.65003 37.5395 4.98447 37.5395 4.98447C37.5395 4.98447 37.7067 3.64381 38.5447 3.64381C39.3827 3.64381 39.7182 4.31366 40.0526 4.81629V7.83301C39.2146 7.83301 37.2041 7.83301 37.2041 10.0117C37.2041 10.6816 37.7067 11.5196 38.0421 11.855C38.5447 12.1904 39.0473 12.1904 39.0473 12.1904C39.0473 12.1904 38.3765 11.855 38.5447 11.1851C38.7129 10.5153 40.0526 10.5153 40.0526 10.6825V14.8717C39.3827 14.8717 37.5395 14.8717 36.5332 16.5478C36.0306 17.554 36.0306 18.7275 36.7005 19.5645C37.2012 20.2334 38.0392 21.0705 39.7153 20.737ZM55.8013 6.82872C55.8013 6.82872 54.2934 7.83397 53.12 8.50478L50.774 9.67822V16.2124L49.7688 16.8842L49.936 17.0514L50.9413 16.3815L53.6226 18.8947L58.6489 15.0409L58.4816 14.8727L55.8003 17.0514L53.6216 14.8727V14.2028L57.978 10.8517L55.8013 6.82872ZM55.8013 12.1904L53.6226 13.8665V8.33661L55.8013 12.1904ZM62.6718 18.8937L60.1577 16.8832L59.1525 17.7203L58.9843 17.553L60.1577 16.7141V11.1851C60.1577 8.83923 57.979 9.51004 58.1472 6.99594C58.1472 5.99068 59.1524 5.15265 59.8223 4.81725C60.3249 4.65002 60.9957 4.65003 60.9957 4.65003C60.9957 4.65003 59.9905 5.15266 60.1577 6.15791C60.4931 7.49857 62.839 7.49857 63.0062 9.3409V15.7088L64.6823 17.0495L65.1849 16.7131V9.84353L64.1797 9.00549L66.5256 6.8268L68.7043 8.83731L67.8663 9.67534V15.7078L70.045 17.382L70.3804 17.2148V9.84257L69.3751 9.00453L71.721 6.82584L74.066 8.66913L74.904 7.83109L75.0712 7.99832L73.0607 9.84161V15.7069L67.8663 18.8899L65.1849 16.8794L62.6718 18.8937ZM168.239 6.82872C168.239 6.82872 166.563 7.83397 165.559 8.50478L163.213 9.67822V16.2124L162.206 16.8842L162.376 17.0514L163.213 16.3815L166.06 18.8947L171.088 15.0409L170.919 14.8727L168.239 17.0514L165.893 14.8727V14.2028L170.419 10.8517L168.239 6.82872ZM168.239 12.1904L165.893 13.8665V8.33661L168.239 12.1904ZM145.115 9.67726H145.282L146.12 9.00645L147.46 10.5143V15.877L146.789 16.3806L148.969 18.8937L151.146 16.7141L150.309 15.7098V9.34186L150.812 8.83924L152.319 10.6825V16.0442L151.817 16.5468L153.828 18.7265L156.006 16.7141L155.169 15.877V9.34186L155.671 8.83924L157.346 10.6825V15.877L156.845 16.3806L159.023 18.8937L162.038 16.0442L161.872 15.877L161.201 16.5468L160.029 15.3744V9.34186L161.033 8.50382V8.33661L159.86 9.17368L157.849 6.99594L155.002 9.17368L152.989 6.99594L150.142 9.17368L148.132 6.99594L145.115 9.67726Z" fill="black"/>
<path fill-rule="evenodd" clip-rule="evenodd" d="M139.083 9.51005L139.92 8.83924L141.093 10.3471V16.3806L140.255 17.2176L140.422 17.3839L141.26 16.5468L143.272 18.8937L146.12 16.3806L145.952 16.2114L145.115 16.8832L143.942 15.5416V9.51005L144.946 8.67201V8.50382L143.942 9.34186L141.93 6.99594L139.083 9.51005ZM139.92 4.31462L141.93 2.47133L143.774 4.31462L141.596 6.32609L139.92 4.31462Z" fill="black"/>
<path fill-rule="evenodd" clip-rule="evenodd" d="M136.903 0.125417C137.406 0.125417 138.244 0.292633 138.914 0.963444C139.416 1.46607 139.585 2.47133 139.416 3.30936C139.249 3.97921 138.914 4.48184 138.243 4.98447C137.406 5.4871 136.569 5.4871 136.569 5.4871V8.67009L138.076 10.0107L136.569 11.1832V15.7078C136.569 15.7078 138.076 14.7026 139.082 12.6911L139.249 12.3557C139.249 13.0256 139.249 14.0318 138.579 15.5397C138.243 16.5449 137.238 17.5511 136.233 18.221C134.39 19.2253 132.883 19.2253 131.373 19.0581C129.699 18.5554 128.023 17.5511 127.017 15.8751C126.18 14.7026 125.843 13.1937 125.843 11.6859C125.843 8.66913 128.189 6.15599 130.703 5.15073C131.04 4.98351 131.206 4.98351 131.71 4.98351C131.373 4.98351 131.207 5.15073 130.871 5.48614C130.034 5.9878 129.364 6.99402 129.027 7.83205L134.056 5.65336V12.6911L130.033 14.7026C130.535 15.3724 131.876 16.3786 133.049 16.3786C135.06 16.7131 136.232 15.7088 136.232 15.7088V11.1842L134.725 10.0117L136.232 8.67105V5.48806C135.395 5.31987 134.389 4.98543 133.719 4.81725C132.882 4.65002 129.865 3.81199 129.363 3.81199C129.026 3.64477 128.357 3.64477 128.022 3.98017C127.686 4.31558 127.519 4.81821 127.519 5.32084C127.687 5.65624 127.856 5.82346 128.022 5.99069C128.022 5.99069 127.855 5.99069 127.519 5.82347C127.017 5.48806 126.513 4.81821 126.513 3.98017C126.346 2.97492 126.85 1.96871 127.687 1.29886C128.526 0.796228 129.363 0.460817 130.369 0.629C131.876 0.796223 133.886 1.63426 135.562 2.13688C136.4 2.30411 136.903 2.30411 137.406 1.96871C137.573 1.80148 137.908 1.46703 137.573 0.963444C137.238 0.293594 136.569 0.2936 135.899 0.125417C136.4 -0.0418056 136.57 -0.0418056 136.903 0.125417ZM131.04 14.0337V7.16317L129.027 8.16842C129.027 8.16842 128.357 9.3409 128.527 11.017C128.527 12.3576 129.364 13.8655 129.867 14.5363L131.04 14.0337ZM173.602 19.7308C173.265 19.8999 171.926 19.5636 171.589 18.0547C171.255 16.5478 172.261 15.7107 173.769 14.0337L171.926 12.5258V9.34186C171.926 9.34186 173.266 8.83923 174.271 8.16938L176.282 6.82872C176.282 6.82872 177.119 7.83398 177.958 7.66676C179.299 7.49857 179.299 6.49331 179.132 6.32609C179.466 6.6615 179.969 7.83398 177.623 10.6825L179.635 12.1904V16.2114C179.635 16.2114 177.289 17.3849 175.277 18.8937C175.277 18.8937 174.105 17.3849 173.099 18.0547C172.261 18.5573 172.595 19.3963 173.602 19.7308ZM171.926 16.7141C171.926 16.7141 172.932 15.0389 174.775 15.3734C176.449 15.7098 176.953 17.3839 176.953 17.3839V13.3638L175.779 12.3586C174.606 13.6983 172.261 15.5416 171.926 16.7141ZM174.606 8.16938V11.3533L175.612 12.3586C175.612 12.3586 177.958 10.5153 178.795 8.67201C178.795 8.67201 177.791 10.1799 176.282 9.67726C175.109 9.34186 174.606 8.16938 174.606 8.16938ZM101.38 9.51005L102.217 8.83924H102.384L101.547 9.67726V16.0442C101.547 16.0442 99.8711 16.8832 98.8668 17.553L96.5209 18.8937L93.5041 16.3806L92.8343 17.0504H92.6671L93.5041 16.2114V9.34186C93.5041 9.34186 94.8448 8.83923 96.0173 8.16938C97.0235 7.49857 98.195 6.82872 98.195 6.82872L101.38 9.51005ZM96.3536 15.2071L98.6976 17.3849V10.5153L96.3536 8.33661V15.2071ZM107.244 8.83924L109.088 6.99594C109.088 6.99594 109.255 7.16317 109.59 7.33135C109.757 7.49857 110.26 7.66675 110.764 7.49857C111.098 7.33135 111.098 7.16316 111.433 6.99594C111.433 8.50382 110.764 9.51005 109.925 9.84449C109.424 10.0117 108.418 10.3471 107.244 9.00645V15.877L108.585 16.8832L109.424 16.2114H109.591L106.574 18.8937L104.228 16.7141L103.391 17.553L103.224 17.3839L104.398 16.2105V10.3462L103.559 9.00549L102.722 9.6763H102.554L105.571 6.99498L107.244 8.83924ZM115.12 11.856L118.47 6.82872C118.47 6.82872 118.973 7.33135 119.812 7.49857C120.816 7.83398 121.822 6.82872 121.822 6.82872C121.655 8.16938 120.985 9.67727 119.476 9.84545C118.303 10.0127 117.131 9.00741 117.131 9.00741L116.963 9.51005L121.656 16.715L122.66 15.8779L122.828 16.0452L119.477 18.8947L115.12 11.856Z" fill="black"/>
<path fill-rule="evenodd" clip-rule="evenodd" d="M112.271 5.15265C112.271 3.98017 111.768 3.31032 111.097 3.31032L114.953 0.796219V15.7107L115.957 16.715L116.627 16.0452L116.796 16.2124L113.779 18.8947L111.767 16.8842L110.93 17.7212L110.763 17.554L112.27 16.2124L112.271 5.15265ZM80.7683 4.81724C80.7683 3.81198 80.2657 3.30936 79.5949 3.30936C78.5897 3.14117 78.4224 4.65002 78.4224 4.65002C78.4224 4.65002 78.2552 3.47658 79.0923 2.63951C79.5949 2.13688 80.6002 1.29885 81.9408 1.63425C83.4487 1.96966 83.9513 3.14214 83.9513 4.14739V18.0547C83.9513 18.0547 84.454 18.2239 84.7894 18.2239C85.292 18.3911 85.6274 18.3911 85.6274 18.3911V1.63329H85.7946V3.97921L88.8114 1.46607L91.1573 3.47658L92.1635 2.63855H92.3307L91.1573 3.6438V16.5459C91.1573 17.3829 90.99 18.2219 90.152 18.7255C88.4759 19.899 86.2982 18.5564 84.2867 18.3892C82.9461 18.0528 80.7683 17.8865 80.0985 19.2262C79.9313 19.5626 79.9313 20.2324 80.6011 20.7351C81.9418 21.5721 87.6389 19.2262 89.6494 20.2324C91.4936 21.0695 91.4936 22.243 91.1573 23.2492C90.6546 24.9252 88.4759 25.2597 88.4759 25.2597C88.4759 25.2597 89.6484 24.5898 89.314 23.5855C89.1468 23.0829 88.8114 22.9138 87.6379 23.0829C85.1248 23.4174 82.2762 24.5898 80.2657 23.7528C79.2605 23.2501 78.4224 22.0767 78.5897 20.736C78.5897 18.8927 80.7683 18.2229 80.7683 18.2229V11.5196C80.6011 11.3524 79.5949 11.3524 79.2605 11.855C78.9251 12.693 79.7631 13.0275 79.7631 13.0275C79.7631 13.0275 79.0923 13.0275 78.4224 12.3576C78.2552 12.0222 77.5844 11.017 78.4224 9.84448C78.9251 9.00645 79.7631 8.83923 80.7683 8.83923V4.81724ZM85.7956 18.5573C85.7956 18.5573 86.8008 18.7265 87.3035 18.2229C88.1415 17.553 87.9733 16.8822 87.9733 16.8822V11.6868C87.9733 11.6868 87.6379 11.016 86.9681 11.016C86.2982 11.016 85.7946 11.6868 85.7946 11.6868L85.7956 18.5573ZM87.9743 4.81724L86.6336 3.64476L85.7956 4.14739V9.00741C85.7956 9.00741 86.2982 9.51004 86.969 9.51004C87.6398 9.51004 87.9743 9.00741 87.9743 9.00741V4.81724ZM87.9743 9.34185C87.9743 9.34185 87.6389 9.67726 86.969 9.67726C86.2992 9.67726 85.7956 9.34185 85.7956 9.34185V11.3533C85.7956 11.3533 86.2982 10.8507 86.969 10.8507C87.6398 10.8507 87.9743 11.3533 87.9743 11.3533V9.34185ZM109.088 23.5865C109.088 22.4131 109.088 22.4131 108.585 22.2449H108.418V22.0777H112.775C112.775 22.2449 112.942 22.9147 112.942 23.2511C112.942 23.4183 112.775 23.4183 112.608 23.4183C112.441 22.9157 112.441 22.5812 111.938 22.414H110.262C109.926 22.414 109.926 22.414 109.926 22.7485V24.759C109.926 24.9281 109.926 24.9281 110.262 24.9281H111.769C111.769 24.9281 111.938 24.759 111.938 24.5918V24.2573C112.105 24.0882 112.272 24.0882 112.272 24.2573V26.1006C112.272 26.2678 112.105 26.2678 111.938 26.1006V25.7642C111.938 25.597 111.769 25.4279 111.602 25.4279C111.434 25.4279 111.267 25.2606 110.932 25.2606H110.262C109.926 25.2606 109.926 25.4279 109.926 25.597V26.9377C109.926 27.6075 109.926 27.9439 110.095 28.1111C110.262 28.1111 110.429 28.2783 111.268 28.2783C112.105 28.2783 112.442 28.2783 112.609 28.1111C112.776 27.9439 112.943 27.6085 113.279 27.1049C113.279 27.1049 113.446 27.1049 113.446 27.2721C113.446 27.6085 113.279 28.2783 113.111 28.6137H108.251V28.2774H108.586C109.088 28.2774 109.088 28.1102 109.088 27.1039L109.088 23.5865ZM114.45 25.2606C114.283 25.0934 114.114 24.9262 113.78 24.9262H113.611V24.5898H115.454V24.9262H115.287C114.953 24.9262 114.953 25.0934 115.12 25.2606L115.623 25.9305C115.623 26.0996 115.79 26.0996 115.79 26.0996C115.79 26.0996 116.126 25.597 116.292 25.2606C116.46 25.0934 116.46 24.9262 116.292 24.9262H116.125V24.5898H117.632V24.9262H117.465C117.298 24.9262 117.129 24.9262 116.962 25.0934C116.796 25.2606 116.46 25.7633 116.125 26.2669C115.956 26.4341 115.956 26.4341 116.125 26.6013L116.962 27.9429C117.13 28.2774 117.299 28.2774 117.632 28.2774H117.799V28.6137H115.789V28.2774H116.125C116.46 28.2774 116.46 28.2774 116.292 28.1102L115.79 27.2712C115.623 27.1039 115.623 27.1039 115.623 26.9367C115.453 27.1039 115.454 27.1039 115.454 27.2712L114.953 27.9429C114.784 28.2774 114.784 28.2774 114.953 28.2774H115.12C115.287 28.4446 115.287 28.6137 115.12 28.6137H113.78C113.611 28.6137 113.611 28.4446 113.611 28.2774H113.948C114.115 28.2774 114.284 28.2774 114.45 27.9429C114.617 27.7738 115.12 27.1039 115.287 26.9367C115.287 26.7695 115.454 26.7695 115.287 26.6003L114.45 25.2606ZM119.31 25.9305C119.31 25.5961 119.31 25.4279 119.477 25.2606C119.645 25.0934 119.814 24.9262 120.314 24.9262C121.153 24.9262 121.656 25.7633 121.656 26.6003C121.656 27.6066 121.153 28.4436 120.314 28.4436C120.147 28.4436 119.814 28.2764 119.645 28.1092C119.477 27.942 119.31 27.942 119.31 27.6066V25.9305ZM118.639 29.9534C118.639 30.6233 118.639 30.7905 118.303 30.7905L117.969 30.9577C117.969 30.9577 117.969 31.1269 118.136 31.1269H120.146V30.9577L119.644 30.7905C119.309 30.7905 119.309 30.6233 119.309 29.9534V28.9472C119.309 28.78 119.476 28.6128 119.476 28.6128C119.644 28.6128 119.813 28.78 119.979 28.78C121.486 28.78 122.492 27.7738 122.492 26.2669C122.492 25.2606 121.822 24.5908 120.816 24.5908C120.146 24.5908 119.475 24.9272 119.475 24.9272H119.308V24.4245C118.972 24.5918 118.469 24.759 118.302 24.9272V25.0944C118.638 25.2616 118.638 25.2616 118.638 25.7642L118.639 29.9534ZM124 25.7633H123.833C123.833 25.4269 124.336 24.7571 125.006 24.7571C125.509 24.7571 125.676 25.0934 125.676 25.4269V25.5961C125.509 25.7633 125.34 25.7633 124.67 25.7633H124ZM125.843 26.0996C126.18 26.0996 126.346 26.0996 126.346 25.9305C126.513 25.9305 126.513 25.9305 126.513 25.7633C126.513 25.0934 125.843 24.5898 125.006 24.5898C123.833 24.5898 123.163 25.5961 123.163 26.7695C123.163 27.2702 123.163 27.6066 123.499 28.1102C123.834 28.4446 124.336 28.78 125.006 28.78C125.509 28.78 126.18 28.4436 126.513 27.7738L126.346 27.6066C126.012 28.1092 125.676 28.1092 125.34 28.1092C124.336 28.1092 123.833 27.2702 123.833 26.2659C123.833 26.0987 123.833 26.0987 124 26.0987L125.843 26.0996ZM130.201 24.7571C130.37 24.7571 130.37 24.9262 130.37 25.0934C130.37 25.2606 130.201 25.4279 130.201 25.4279H130.034C129.866 25.0934 129.364 24.9272 129.027 24.9272C128.357 24.9272 127.687 25.4279 127.687 26.4341C127.687 27.2712 128.189 28.1102 129.196 28.1102C129.865 28.1102 130.2 27.9429 130.369 27.6075C130.369 27.6075 130.536 27.6075 130.536 27.7747C130.2 28.4446 129.53 28.781 128.86 28.781C128.357 28.781 127.856 28.6137 127.519 28.2783C127.183 27.9439 127.017 27.4413 127.017 26.7714C127.017 25.598 127.687 24.5918 129.363 24.5918C129.53 24.5898 130.034 24.5898 130.201 24.7571ZM132.379 25.0934C132.212 25.0934 132.212 25.0934 132.212 25.2606V27.1039C132.212 27.7738 132.212 28.2774 132.882 28.2774H133.049C133.217 28.2774 133.386 28.1102 133.386 28.1102C133.386 28.1102 133.553 28.2774 133.386 28.2774C133.217 28.4446 132.883 28.78 132.379 28.78C131.542 28.78 131.373 28.2774 131.373 27.6066V25.4269C131.373 25.0925 131.373 25.0925 131.206 25.0925H130.87V24.9252C131.206 24.7561 131.372 24.5889 131.541 24.5889C131.709 24.4216 131.876 24.2544 131.876 23.919C132.043 23.919 132.043 23.919 132.212 24.0862V24.4226C132.212 24.5898 132.212 24.5898 132.379 24.5898H133.386C133.553 24.7571 133.553 25.0925 133.386 25.0925L132.379 25.0934ZM137.742 25.0934C137.573 25.0934 137.573 25.0934 137.573 25.2606V27.1039C137.573 27.7738 137.573 28.2774 138.243 28.2774H138.579L138.746 28.1102C138.914 28.1102 138.914 28.2774 138.914 28.2774C138.746 28.4446 138.413 28.78 137.909 28.78C137.072 28.78 136.903 28.2774 136.903 27.6066V25.4269C136.903 25.0925 136.903 25.0925 136.736 25.0925H136.4C136.4 25.0925 136.232 24.9252 136.4 24.9252C136.569 24.7561 136.902 24.5889 136.902 24.5889C137.071 24.4216 137.239 24.2544 137.405 23.919C137.405 23.919 137.572 23.919 137.572 24.0862V24.4226C137.572 24.5898 137.572 24.5898 137.741 24.5898H138.913V25.0925L137.742 25.0934ZM139.92 22.9138C139.92 22.4131 139.92 22.4131 139.585 22.2439L139.416 22.0767V21.9095C139.753 21.9095 140.086 21.7423 140.59 21.5731V25.0934C140.926 24.7571 141.429 24.5908 141.93 24.5908C142.937 24.5908 143.272 25.0934 143.272 25.7642V27.4403C143.272 28.1102 143.272 28.2774 143.606 28.2774H143.774C143.943 28.4446 143.943 28.6137 143.774 28.6137H141.93V28.2774H142.099C142.434 28.2774 142.434 28.1102 142.434 27.4403V26.0996C142.434 25.4279 142.267 24.9262 141.597 24.9262C141.261 24.9262 140.927 25.0934 140.758 25.2606C140.591 25.4279 140.591 25.4279 140.591 25.7633V27.4393C140.591 28.1092 140.591 28.2764 140.927 28.2764H141.094C141.261 28.4436 141.261 28.6128 141.094 28.6128H139.251V28.2764H139.418C139.921 28.2764 139.921 28.1092 139.921 27.4393V22.9138H139.92ZM145.282 25.7633H145.115C145.115 25.4269 145.616 24.7571 146.287 24.7571C146.789 24.7571 146.959 25.0934 146.959 25.4269V25.5961C146.789 25.7633 146.622 25.7633 145.952 25.7633H145.282ZM147.126 26.0996C147.46 26.0996 147.628 26.0996 147.628 25.9305C147.796 25.9305 147.796 25.9305 147.796 25.7633C147.796 25.0934 147.126 24.5898 146.287 24.5898C145.115 24.5898 144.443 25.5961 144.443 26.7695C144.443 27.2702 144.443 27.6066 144.78 28.1102C145.116 28.4446 145.617 28.78 146.287 28.78C146.789 28.78 147.46 28.4436 147.796 27.7738L147.628 27.6066C147.292 28.1092 146.959 28.1092 146.622 28.1092C145.616 28.1092 145.115 27.2702 145.115 26.2659C145.115 26.0987 145.115 26.0987 145.282 26.0987L147.126 26.0996ZM150.143 22.2439V22.0767H152.32C152.487 22.0767 152.487 22.2439 152.32 22.2439H152.153C151.986 22.2439 151.817 22.4131 151.817 22.4131C151.817 22.5803 151.986 23.0829 152.319 23.7537C152.822 24.9272 153.493 26.2669 153.995 27.4403C154.33 26.9377 154.498 26.4341 154.832 25.9315C154.832 25.597 155.002 25.4288 155.002 25.4288L154.832 25.2616L153.828 22.7485C153.659 22.5812 153.492 22.2458 153.158 22.2458H152.989C152.822 22.2458 152.822 22.0786 152.989 22.0786H155.002C155.169 22.0786 155.169 22.2458 155.002 22.2458H154.832C154.498 22.2458 154.498 22.415 154.665 22.7485C154.832 23.2511 155.168 23.9219 155.335 24.5918C155.502 24.0891 155.671 23.7547 156.005 23.2511C156.341 22.414 156.172 22.2449 156.005 22.2449H155.67C155.501 22.0777 155.67 22.0777 155.67 22.0777H157.514C157.514 22.0777 157.681 22.2449 157.514 22.2449H157.177C156.843 22.2449 156.675 22.7475 156.508 23.0839C156.171 23.5865 155.838 24.4245 155.67 24.758V25.2616C156.005 25.9315 156.34 26.7705 156.675 27.4413C157.011 26.7714 157.177 26.1006 157.514 25.4288C157.681 24.9281 158.351 23.5875 158.351 23.4183C158.518 23.0839 158.687 22.5812 158.687 22.414C158.687 22.414 158.518 22.2449 158.351 22.2449H158.014V22.0777H159.858C160.027 22.0777 160.027 22.2449 159.858 22.2449H159.69C159.188 22.2449 159.188 22.5812 158.517 23.9209L157.847 25.597C157.345 26.6013 157.01 27.6075 156.674 28.78H156.339C156.007 27.8069 155.615 26.8552 155.166 25.9305C154.83 26.6003 154.16 27.9429 153.992 28.78H153.656C153.489 28.2774 153.155 27.4393 152.986 27.1039C152.316 25.7633 151.813 24.4236 151.143 22.9147C150.976 22.5803 150.809 22.2449 150.473 22.2449L150.143 22.2439ZM162.375 26.7695C162.375 27.4393 162.206 28.4436 161.368 28.4436C160.362 28.4436 160.028 27.4393 160.028 26.6003C160.028 25.4269 160.53 24.7571 161.201 24.7571C162.038 24.7571 162.375 25.9305 162.375 26.7695ZM161.201 24.5898C160.195 24.5898 159.189 25.4269 159.189 26.6003C159.189 27.942 160.028 28.78 161.201 28.78C162.375 28.78 163.212 27.7738 163.212 26.6003C163.212 25.4269 162.375 24.5898 161.201 24.5898ZM164.552 25.7633C164.552 25.2606 164.552 25.2606 164.385 25.0934H164.218V24.9262C164.385 24.7571 165.055 24.5898 165.222 24.4236V25.0934H165.39C165.726 24.7571 166.059 24.5908 166.396 24.5908C166.732 24.5908 166.898 24.758 166.898 24.9272C166.898 25.2616 166.562 25.4279 166.396 25.4279C166.396 25.4279 166.229 25.4279 166.229 25.2606C166.059 25.2606 165.892 25.0934 165.726 25.0934C165.56 25.0934 165.559 25.2606 165.39 25.4279C165.39 25.4279 165.222 25.7642 165.222 26.0996V27.4403C165.222 28.1102 165.39 28.2774 165.725 28.2774H166.059V28.6137H164.049C163.882 28.6137 163.882 28.4446 164.049 28.2774H164.218C164.552 28.2774 164.552 28.1102 164.552 27.4403V25.7633ZM168.405 27.4393C168.405 28.1092 168.405 28.2764 168.742 28.2764H169.076V28.6128H167.066V28.2764H167.402C167.736 28.2764 167.736 28.1092 167.736 27.4393V22.9138C167.736 22.4131 167.736 22.4131 167.402 22.2439V22.0767C167.233 22.0767 167.233 21.9095 167.402 21.9095C167.569 21.9095 168.072 21.7423 168.406 21.5731V27.4393H168.405ZM172.763 27.6066C172.763 27.7738 172.763 27.9429 172.595 27.9429C172.428 28.1102 172.093 28.2774 171.926 28.2774C170.919 28.2774 170.419 27.4403 170.419 26.4341C170.419 25.597 170.919 24.758 171.759 24.758C172.094 24.758 172.429 25.0944 172.596 25.2606C172.596 25.4279 172.764 25.4279 172.764 25.597L172.763 27.6066ZM173.433 22.7475V21.5741C172.932 21.7432 172.595 21.9104 172.261 21.9104V22.0777L172.428 22.2449C172.763 22.414 172.763 22.414 172.763 22.9147V24.4236C172.763 24.5908 172.763 24.5908 172.595 24.5908H171.926C170.585 24.5908 169.58 25.4279 169.58 26.7705C169.58 27.7747 170.419 28.781 171.423 28.781C171.926 28.781 172.262 28.6137 172.596 28.2783H172.764V28.7819C173.1 28.7819 173.77 28.6147 174.105 28.4456C174.272 28.4456 174.272 28.2783 174.105 28.1111C173.936 28.2783 173.769 28.2783 173.769 28.2783C173.433 28.2783 173.433 27.9439 173.433 27.1049V22.7475ZM176.785 22.4131C176.785 22.4131 176.785 22.2439 176.952 22.2439C177.454 22.2439 177.622 22.5803 177.622 22.9138C177.622 23.2501 177.454 23.5855 177.119 23.5855C176.785 23.5855 176.785 23.5855 176.785 23.4164V22.4131ZM176.282 24.2564C176.282 24.7571 176.282 24.7571 176.115 24.7571L175.948 24.9262H177.118C177.287 24.9262 177.287 24.9262 177.118 24.9262L176.951 24.7571C176.784 24.7571 176.784 24.7571 176.784 24.2564V23.92C176.784 23.7528 176.784 23.7528 176.951 23.7528H177.118C177.287 24.0872 177.454 24.2554 177.621 24.4226C177.79 24.9252 178.123 25.0925 178.46 25.0925C178.46 25.0925 178.627 25.0925 178.627 24.9252C178.627 24.9252 178.46 24.9252 178.46 24.7561C178.123 24.5889 177.957 24.2554 177.621 23.7518V23.5846C177.79 23.4154 178.123 23.2482 178.123 22.9128C178.123 22.243 177.454 22.0757 177.117 22.0757H175.946V22.243H176.113C176.28 22.243 176.28 22.4121 176.28 22.9128V24.2564H176.282ZM177.119 26.0996C178.628 26.0996 179.801 24.9262 179.801 23.5865C179.801 22.0777 178.628 21.0714 177.119 21.0714C175.612 21.0714 174.606 22.0777 174.606 23.5865C174.606 24.9262 175.611 26.0996 177.119 26.0996ZM174.941 23.5865C174.941 22.2449 175.948 21.2406 177.119 21.2406C178.461 21.2406 179.299 22.2449 179.299 23.5865C179.299 24.758 178.462 25.7642 177.119 25.7642C175.948 25.7633 174.941 24.7571 174.941 23.5865Z" fill="black"/>
</svg>
