<svg width="139" height="26" viewBox="0 0 139 26" fill="none" xmlns="http://www.w3.org/2000/svg">
<g clip-path="url(#clip0_483_420)">
<path fill-rule="evenodd" clip-rule="evenodd" d="M15.432 0.117666H18.7867V18.6615H15.4272L15.432 0.117666ZM28.871 7.67654L29.8237 7.77847L30.6644 8.06576L31.3792 8.5072L31.9632 9.0643L32.4142 9.70459L32.735 10.3956L32.9277 11.1106L32.9944 11.8211L32.9408 12.5236L32.777 13.2196L32.4929 13.8979L32.0737 14.5239L31.5108 15.0685L30.805 15.4945L29.9616 15.7648L28.9921 15.8585L28.0125 15.7598L27.1517 15.4777L26.4235 15.0458L25.8369 14.5012L25.3853 13.8844L25.0672 13.2228L24.8772 12.5496L24.8143 11.8858L24.8765 11.219L25.0612 10.5255L25.3661 9.835L25.801 9.17722L26.3658 8.58914L27.0717 8.11023L27.9116 7.79046L28.871 7.67654ZM21.6391 11.9398L21.8046 13.4399L22.2722 14.7997L23.0014 16.0119L23.954 17.0531L25.0861 17.904L26.3543 18.5388L27.7108 18.9345L29.1098 19.0692L30.488 18.928L31.7962 18.5181L33.0019 17.8628L34.0698 16.9854L34.9608 15.9139L35.6417 14.6706L36.0758 13.2828L36.2295 11.7701L36.0645 10.2602L35.5997 8.86919L34.873 7.61783L33.9244 6.5316L32.7936 5.64049L31.5262 4.97221L30.1656 4.55376L28.7573 4.40811L27.3686 4.56026L26.0558 4.9932L24.8493 5.68296L23.7849 6.5993L22.8952 7.71526L22.2196 8.99785L21.7893 10.4168L21.6391 11.9398ZM45.7261 7.67654L46.6788 7.77847L47.5194 8.06576L48.2351 8.5072L48.8191 9.0643L49.2702 9.70459L49.5903 10.3956L49.7836 11.1106L49.8505 11.8211L49.7961 12.5236L49.6331 13.2196L49.3483 13.8979L48.929 14.5239L48.3662 15.069L47.6604 15.4945L46.8164 15.7648L45.8474 15.8585L44.8678 15.7598L44.007 15.4777L43.2783 15.0458L42.6915 14.5012L42.2398 13.8834L41.9223 13.2226L41.7331 12.5493L41.6702 11.8855L41.7318 11.2188L41.917 10.5253L42.2222 9.83475L42.6563 9.17697L43.2219 8.58889L43.9277 8.10998L44.7677 7.79021L45.7261 7.67654ZM38.4937 11.9398L38.66 13.4399L39.1275 14.7997L39.8567 16.0119L40.8094 17.0531L41.9407 17.904L43.2094 18.5388L44.5654 18.9345L45.9639 19.0692L47.3426 18.9278L48.65 18.5178L49.856 17.8625L50.9252 16.9852L51.8154 15.9137L52.4963 14.6703L52.9311 13.2825L53.0844 11.7699L52.9201 10.2599L52.4551 8.86894L51.7276 7.61758L50.779 6.53135L49.6482 5.64024L48.3815 4.97196L47.021 4.55351L45.6129 4.40786L44.2242 4.56001L42.9117 4.99295L41.7044 5.68271L40.6398 6.59905L39.7508 7.71501L39.0744 8.9976L38.6444 10.4166L38.4937 11.9398ZM55.8155 4.81532H58.4684V7.39899L60.4723 5.52107L61.4524 4.92L62.4705 4.5715L63.4931 4.47532L64.4895 4.64045L65.4447 5.07539L66.3344 5.80587L67.731 7.6623L68.6154 6.1836L69.1005 5.64748L69.6866 5.1983L70.3569 4.84006L71.0901 4.58274L71.8667 4.42535L72.6615 4.37664L73.4549 4.43584L74.2196 4.60872L74.9395 4.89077L75.5937 5.28399L76.1667 5.78788L76.6425 6.40769L77.0091 7.15266L77.2474 8.03553L77.3352 9.09228V18.6615H74.0402L74.0958 10.0906L73.7013 8.80673L72.9587 7.90712L71.9839 7.43971L70.9404 7.3825L69.9412 7.67104L69.0711 8.25388L68.4184 9.10552L68.1102 10.1515V18.6028H64.9276V10.838L64.7019 9.42305L64.0381 8.34931L63.0613 7.73125L61.9569 7.58161L60.8772 7.85741L59.9442 8.51794L59.2894 9.52922L59.0597 10.7713V18.603H55.7622L55.8155 4.81532ZM80.3562 0.0592079H83.5375V6.99552L85.0586 5.64423L85.5264 5.33695L86.0097 5.10162L86.4921 4.92999L86.9526 4.81357L87.374 4.74263L87.9908 4.69916L89.2106 4.81607L90.4439 5.15808L91.6444 5.72867L92.751 6.52561L93.7042 7.54938L94.4543 8.79674L94.9472 10.2782L95.1266 12.0007L94.9736 13.3662L94.5433 14.6353L93.8702 15.7883L92.9976 16.7943L91.9632 17.6262L90.816 18.2498L89.6017 18.641L88.3453 18.7766L87.7142 18.7469L87.1451 18.6615L86.6423 18.5321L86.1899 18.3642L85.7737 18.1696L85.0012 17.7144L83.6558 16.839V18.6615H80.356V0.0592079H80.3562ZM83.4746 11.7087L83.5727 12.6375L83.8531 13.4702L84.2823 14.1951L84.8329 14.7987L85.4692 15.2794L86.1698 15.6279L86.905 15.844L87.6533 15.9177L88.3997 15.8475L89.1389 15.6401L89.8455 15.3034L90.4949 14.8364L91.0573 14.2451L91.5012 13.5284L91.7906 12.699L91.894 11.7686L91.7933 10.841L91.515 10.0019L91.0863 9.27065L90.5397 8.65509L89.9026 8.16569L89.2054 7.80495L88.4676 7.58086L87.7155 7.50166L86.9619 7.57636L86.2216 7.79146L85.515 8.14046L84.8676 8.61687L84.307 9.22069L83.8649 9.94417L83.5765 10.7801L83.4746 11.7087ZM120.344 5.50283L120.848 5.16757L121.349 4.92774L121.825 4.78085L122.254 4.7144L122.458 4.71814V7.75698L121.876 7.76947L121.146 7.8709L120.411 8.08275L119.707 8.44749L119.104 9.00185L118.692 9.7663L118.555 10.6639V18.7209H115.144L115.307 4.81507H118.258V7.8654L119.855 5.94202L120.344 5.50283ZM3.99037 10.5393L6.96482 10.5587L7.84551 10.8038L8.52515 11.3454L8.93052 12.0584L9.08501 12.8384L9.00776 13.6218L8.70129 14.3483L8.14218 14.9431L7.35711 15.2681H4.00295L3.99037 10.5393ZM3.99263 3.27667L6.63092 3.29341L7.41196 3.512L8.01838 3.99616L8.37971 4.6317L8.5171 5.32321L8.44765 6.01747L8.17589 6.66426L7.67365 7.19788L6.97061 7.48917H4.00295L3.99263 3.27667ZM0.0506767 18.5441H8.02165L9.02538 18.4221L9.92292 18.0859L10.7407 17.5633L11.4588 16.8767L12.0514 16.0688L12.4965 15.1745L12.7748 14.2366L12.873 13.2813L12.8194 12.3814L12.6681 11.6047L12.4291 10.9562L12.1118 10.4198L11.7155 9.97665L11.2384 9.61016L10.672 9.31187L8.4874 8.53817L10.3519 7.72975L10.6896 7.49442L11.0044 7.17514L11.2872 6.77018L11.5248 6.28528L11.7074 5.71968L11.8239 5.07939L11.866 4.38588L11.799 3.7903L11.5907 3.09805L11.2289 2.36032L10.7155 1.64208L10.0485 1.00029L9.22441 0.481657L8.23251 0.133155L7.01917 0H0.0413666L0.0506767 18.5441ZM132.421 26L130.887 25.9211L129.513 25.682L128.315 25.2945L127.304 24.7666L126.48 24.1073L125.842 23.3179L125.389 22.3898L125.3 22.0203H129.074L129.126 22.1283L129.462 22.5572L129.858 22.892L130.286 23.1365L130.721 23.3074L131.155 23.4143L131.569 23.4733L131.964 23.4893L132.405 23.4601L132.943 23.3664L133.537 23.197L134.153 22.9324L134.747 22.5515L135.268 22.0226L135.635 21.3298L135.763 20.5364V16.174L134.241 17.5295L133.773 17.8361L133.29 18.0721L132.809 18.2425L132.346 18.3597L131.926 18.4284L131.312 18.4714L130.088 18.3562L128.854 18.0142L127.654 17.4438L126.548 16.6462L125.594 15.6244L124.845 14.3763L124.353 12.8963L124.174 11.1698L124.326 9.80627L124.757 8.53668L125.428 7.38425L126.302 6.37671L127.335 5.54655L128.483 4.9225L129.698 4.53053L130.956 4.39262L131.585 4.42385L132.155 4.50954L132.657 4.6402L133.109 4.80608L133.525 5.00319C134.258 5.41415 134.946 5.87332 135.646 6.322V4.50904H138.947L138.959 20.1926L138.824 21.4822L138.451 22.6002L137.862 23.577L137.079 24.4064L136.12 25.0812L135.01 25.5803L133.771 25.8931L132.421 26ZM135.826 11.4628L135.726 10.5353L135.447 9.70135L135.016 8.97861L134.468 8.37329L133.829 7.89488L133.132 7.54538L132.396 7.32954L131.649 7.25409L130.899 7.32629L130.161 7.53314L129.455 7.87115L128.807 8.33432L128.244 8.9279L127.8 9.64339L127.51 10.4748L127.408 11.4011L127.506 12.332L127.785 13.1699L128.213 13.9029L128.761 14.5167L129.396 15.0076L130.096 15.3676L130.833 15.5914L131.587 15.6691L132.338 15.5954L133.079 15.3798L133.785 15.0328L134.433 14.5551L134.993 13.9531L135.436 13.2291L135.723 12.3939L135.826 11.4628ZM112 9.25392L111.633 8.46248L111.08 7.58236L110.422 6.79591L109.666 6.10416L108.831 5.51608L107.928 5.04416L106.978 4.69566L105.992 4.48106L105 4.40711L103.601 4.5605L102.289 4.99345L101.081 5.68321L100.017 6.59955L99.1279 7.71551L98.4516 8.9981L98.0213 10.4171L97.8706 11.94L98.0369 13.4402L98.5042 14.8L99.2334 16.0121L100.186 17.0534L101.317 17.9043L102.586 18.5391L103.942 18.9348L105.348 19.0699L106.442 18.9835L107.503 18.7307L108.505 18.3227L109.436 17.7664L110.273 17.0769L111 16.2614L111.599 15.3338L111.69 15.127H108.354C108.116 15.3651 107.845 15.5467 107.566 15.7286L107.167 15.9334L106.73 16.1013L106.259 16.2242L105.757 16.2999L105.215 16.3261L104.396 16.2612L103.642 16.0738L102.964 15.7835L102.37 15.4053L101.858 14.9641L101.429 14.4747L101.08 13.9566L100.37 12.5533H112.288V12.5241H112.426C112.467 12.1186 112.463 11.7194 112.452 11.3192L112.413 10.8855L112.349 10.4663L112.26 10.0561L112.143 9.65438L112 9.25392ZM105.106 7.26833L105.81 7.32029L106.463 7.46919L107.061 7.70202L107.603 8.00755L108.082 8.37554L108.501 8.78625L108.858 9.23218L109.748 10.6297H100.516L101.426 9.23543L101.782 8.79549L102.194 8.38803L102.666 8.02004L103.194 7.71201L103.781 7.47418L104.419 7.32204L105.106 7.26833Z" fill="black"/>
</g>
<defs>
<clipPath id="clip0_483_420">
<rect width="139" height="26" fill="white"/>
</clipPath>
</defs>
</svg>
