<svg width="149" height="33" viewBox="0 0 149 33" fill="none" xmlns="http://www.w3.org/2000/svg">
<g clip-path="url(#clip0_483_439)">
<rect width="149" height="33" fill="white"/>
<path d="M15.7967 31.3409C24.0625 31.3409 30.7595 24.5838 30.7595 16.2488C30.7595 7.9151 24.0625 1.15942 15.7967 1.15942C7.53363 1.15942 0.83519 7.91483 0.83519 16.2488C0.83519 24.5838 7.53363 31.3409 15.7967 31.3409Z" fill="white"/>
<path d="M13.4969 18.7647H19.0038L20.6124 19.8168H13.254L9.95146 30.1121C6.30299 28.6849 2.92644 25.379 1.50995 21.6635C4.20213e-06 18.0627 4.20213e-06 13.5388 1.54302 9.92278C2.98957 6.20592 6.46369 2.84903 10.1614 1.47005C13.0714 0.254528 16.9653 0.125809 20.0511 1.08252C23.5924 2.10538 26.9362 4.66515 28.8798 8.00688C31.0541 11.6714 31.665 16.3281 30.343 20.5103C29.5084 23.2859 27.7886 25.9438 25.4207 27.8445L21.3563 21.0141L27.0143 24.1968C27.046 24.1968 27.0624 24.1607 27.046 24.1276L19.6351 17.6751L29.2201 19.1495C29.2531 19.1495 29.2668 19.1343 29.2668 19.1175L29.2037 19.069L20.1664 15.8728L29.5579 13.5859C29.5893 13.5859 29.5893 13.5556 29.5729 13.5388L19.9385 14.1713L27.4822 8.41123C27.4986 8.37926 27.4327 8.3641 27.4177 8.39745L18.9431 12.7303L23.6211 4.40634C23.6211 4.39393 23.6211 4.3592 23.5924 4.37574L17.4802 11.6105L18.6537 2.10566C18.6537 2.08774 18.6193 2.0712 18.5878 2.08774L15.7767 11.3169L13.3157 1.81073C13.2993 1.79557 13.2663 1.77876 13.2485 1.81073L13.9265 11.6714L8.12176 4.05188C8.104 4.03396 8.08869 4.05188 8.07229 4.06704L12.4633 12.4991L4.16309 7.9253C4.14806 7.9253 4.11499 7.94321 4.11499 7.95837L11.4969 14.0718L2.07403 13.068C2.04097 13.0859 2.04097 13.1151 2.07403 13.1303L11.2103 15.8257L2.1235 18.5183C2.10574 18.5321 2.10574 18.5654 2.1235 18.5806L11.4969 17.4786L4.13139 23.7883C4.11499 23.7883 4.09969 23.8203 4.13139 23.8382L4.23032 23.8062L10.1286 20.6914L11.5136 18.4695H13.0881L11.9965 17.6917L15.645 11.7847L13.4928 18.7603L13.4969 18.7647ZM40.6749 26.5386H33.3217L39.2103 5.34017H54.2814L52.8458 10.371H45.155L44.1682 13.9798H51.8603L50.563 18.6104H42.8725L40.6749 26.5386ZM57.6899 26.5388H50.422L54.7321 11.0523H62.0014L57.6899 26.5388ZM62.3953 9.57522H55.1273L56.3104 5.34044H63.5783L62.3953 9.57522ZM76.5475 26.5383H69.4195L69.9259 24.8051C68.4886 26.0275 67.0243 26.9065 64.6865 26.9065C62.3187 26.9065 60.8268 25.7698 60.8268 23.3556C60.8268 20.6853 61.87 16.7066 63.4182 13.9227C64.545 11.8475 66.5739 10.7692 68.9691 10.7692C71.024 10.7692 72.5462 11.6774 73.1376 12.8139L75.1663 5.34127H82.4343L76.5475 26.5383ZM71.0816 15.6545C70.4323 15.6545 69.7859 15.8552 69.4195 16.7634C68.8841 18.0701 68.405 19.3493 68.405 20.6271C68.405 21.2253 68.8278 21.736 69.5318 21.736C70.0945 21.736 70.461 21.5657 70.7712 21.3677L72.2371 16.2802C71.9835 15.9108 71.532 15.6545 71.0816 15.6545ZM97.0697 19.776H87.0415C86.8439 20.5982 86.6477 21.1674 86.6477 21.8206C86.6477 22.1334 86.7039 22.9295 87.7168 22.9295C88.7312 22.9295 89.1827 22.5306 89.6041 21.026H96.7322C95.8303 25.4294 90.6473 26.9344 87.4643 26.9344C83.1528 26.9344 79.8011 26.3101 79.8011 22.1334C79.8011 19.8314 80.9555 16.0244 82.4777 14.0073C84.3088 11.5917 87.4919 10.6835 90.4224 10.6835C94.9301 10.6835 97.8593 11.6207 97.8593 15.4844C97.859 16.423 97.4652 18.4968 97.0697 19.776ZM89.8017 14.5762C88.8999 14.5762 88.2809 15.2005 87.8857 16.7636H90.8725C90.9575 16.4508 91.0701 15.9676 91.0701 15.6823C91.0701 14.8309 90.5623 14.5762 89.8017 14.5762ZM104.375 26.5386H97.1061L102.995 5.34017H110.264L104.375 26.5386ZM113.979 26.5388H106.71L111.02 11.0523H118.289L113.979 26.5388ZM118.683 9.57522H111.415L112.598 5.34044H119.866L118.683 9.57522ZM131.75 11.0523L132.383 14.5478H126.82L125.187 20.4284C125.045 20.884 124.933 21.4515 124.933 21.8212C124.933 22.5022 125.214 22.7307 126.2 22.7307H127.749L126.678 26.5391H120.198C118.057 26.5391 117.24 25.487 117.24 23.895C117.24 23.2429 117.325 22.5315 117.552 21.7354L121.496 7.61384H128.764L127.805 11.0526L131.75 11.0523ZM33.173 28.9194L34.9849 28.9181L33.8305 32.7306H32.0241L33.173 28.9194ZM39.4967 28.9225L42.1472 28.9211L42.8266 31.4627H42.8446L43.6117 28.9197L45.1848 28.9183L44.0222 32.7226L41.4855 32.7309L40.7512 30.0148H40.7389L39.9346 32.7253L38.3615 32.7267L39.4967 28.9225ZM48.6199 28.9241L50.6141 28.9228L50.9642 31.3191L52.7884 28.92L54.6345 28.9186L51.5914 32.7242L49.3761 32.727L48.6199 28.9241ZM58.1078 28.9255L62.2299 28.9214L61.9979 29.694L59.6273 29.6953L59.3983 30.4773L61.6205 30.4759L61.398 31.2097L59.1758 31.211L58.9466 31.9657L61.3417 31.9641L61.1001 32.7353L56.9564 32.738L58.1078 28.9255ZM75.8093 29.8536L74.3983 29.8552L74.6771 28.9302L79.3094 28.9261L79.0309 29.8511L77.6199 29.8522L76.7552 32.7207L74.9446 32.722L75.8093 29.8536ZM83.0579 28.9205L85.8032 28.9178L85.9349 31.4624H85.9472L87.5848 28.9164L90.341 28.9137L89.1961 32.7275L87.5175 32.7289L88.3782 29.8577H88.3659L86.326 32.7303L84.5761 32.7317L84.3277 29.8607H84.3096L83.4504 32.7234L81.9131 32.7248L83.0579 28.9205ZM101.875 28.9225L104.522 28.9211L105.205 31.4627H105.223L105.99 28.9183H107.561L106.411 32.7309L103.842 32.724L103.129 30.0148H103.117L102.295 32.7253L100.72 32.7267L101.875 28.9225ZM111.905 29.8478L110.493 29.8491L110.771 28.923L115.405 28.9203L115.127 29.845L113.714 29.8464L112.851 32.7245L111.039 32.7259L111.905 29.8478ZM143.379 23.4237C142.29 23.4237 141.402 24.3178 141.402 25.417C141.402 26.5149 142.29 27.4104 143.379 27.4104C144.467 27.4104 145.355 26.5146 145.355 25.417C145.355 24.3178 144.467 23.4237 143.379 23.4237ZM143.379 27.0562C142.948 27.0562 142.534 26.8835 142.229 26.5761C141.925 26.2688 141.753 25.8519 141.753 25.4172C141.753 24.9825 141.925 24.5656 142.229 24.2582C142.534 23.9508 142.948 23.7781 143.379 23.7781C143.81 23.7781 144.223 23.9508 144.528 24.2582C144.833 24.5656 145.004 24.9825 145.004 25.4172C145.004 25.8519 144.833 26.2688 144.528 26.5761C144.223 26.8835 143.81 27.0562 143.379 27.0562Z" fill="black"/>
<path d="M144.171 25.0041C144.171 24.6083 143.942 24.3854 143.453 24.3854H142.684V26.4396H143.04V25.5992H143.313L143.821 26.4396H144.214L143.682 25.5703C143.96 25.5358 144.171 25.3614 144.171 25.0041ZM143.04 25.2795V24.7037H143.313C143.542 24.6996 143.798 24.7134 143.798 24.989C143.798 25.266 143.542 25.2798 143.313 25.2798L143.04 25.2795ZM67.783 30.0777C67.7431 30.0349 67.7403 29.9627 67.7584 29.9046C67.8174 29.7108 68.0563 29.5835 68.4391 29.5835C68.6643 29.5821 69.0114 29.6083 69.1104 29.6887C69.1591 29.7213 69.1957 29.7694 69.2143 29.8253C69.233 29.8812 69.2327 29.9418 69.2134 29.9974H70.8179C71.0073 29.3164 70.5818 28.8776 68.7698 28.8803C67.0486 28.8817 66.0727 29.2541 65.8215 30.0848C65.757 30.3009 65.7488 30.568 65.9273 30.7466C66.3706 31.1923 68.3719 31.3695 68.5408 31.6104C68.5589 31.6349 68.5707 31.6635 68.5752 31.6937C68.5798 31.7239 68.5769 31.7547 68.5668 31.7835C68.4747 32.0895 68.0451 32.1683 67.6704 32.1683C67.4315 32.1683 67.1213 32.117 67.0322 32.0175C66.9486 31.918 66.9486 31.7642 66.9964 31.6658L65.3165 31.6686C65.149 32.2598 65.0763 32.8742 67.411 32.8731C69.3697 32.8703 70.2675 32.3872 70.4924 31.6355C70.6036 31.2673 70.4938 31.0625 70.3661 30.9324C69.9311 30.4804 67.9929 30.3144 67.783 30.0777ZM94.0288 28.9264L98.1509 28.9222L97.9188 29.6948L95.5483 29.6962L95.319 30.4784L97.5401 30.477L97.3176 31.2108L95.0968 31.2119L94.8675 31.9679L97.2613 31.9652L97.0197 32.7361L92.8774 32.7389L94.0288 28.9264ZM141.563 11.0523L137.618 19.6338L137.731 11.0523H130.379L131.786 26.5388C131.606 27.4457 131.31 27.9564 130.746 28.2083C130.128 28.4853 128.733 28.4355 128.242 28.4076L128.153 28.4131L126.993 32.6214L131.955 32.6256C134.885 32.6256 136.322 31.1402 138.408 27.8453L149 11.0518H141.563V11.0523ZM120.105 30.0683C120.065 30.0256 120.064 29.952 120.08 29.8952C120.139 29.7014 120.38 29.5741 120.761 29.5741C120.986 29.5727 121.333 29.5989 121.432 29.6794C121.481 29.712 121.518 29.76 121.536 29.8159C121.555 29.8718 121.555 29.9324 121.535 29.9881H123.14C123.329 29.307 122.904 28.8682 121.092 28.871C119.372 28.8723 118.395 29.2447 118.145 30.0755C118.079 30.2915 118.071 30.5586 118.249 30.7372C118.692 31.1829 120.694 31.3602 120.863 31.6011C120.881 31.6255 120.893 31.6541 120.897 31.6843C120.902 31.7145 120.899 31.7454 120.889 31.7742C120.798 32.0801 120.367 32.1589 119.992 32.1589C119.753 32.1589 119.443 32.1077 119.354 32.0082C119.27 31.9087 119.27 31.7549 119.318 31.6565L117.638 31.6592C117.471 32.2504 117.398 32.8648 119.733 32.8637C121.691 32.861 122.589 32.3778 122.815 31.6261C122.925 31.2579 122.815 31.0531 122.688 30.923C122.254 30.4713 120.315 30.305 120.105 30.0683Z" fill="black"/>
</g>
<defs>
<clipPath id="clip0_483_439">
<rect width="149" height="33" fill="white"/>
</clipPath>
</defs>
</svg>
