<svg width="99" height="28" viewBox="0 0 99 28" fill="none" xmlns="http://www.w3.org/2000/svg">
<path fill-rule="evenodd" clip-rule="evenodd" d="M51.5407 1.06806H57.4533C60.6116 1.06374 63.6393 1.48587 66.2399 3.45919C69.1663 5.67936 70.2712 8.75771 70.2712 11.9897C70.2712 15.1915 69.1459 18.3789 66.6754 20.2951C63.5575 22.715 61.0591 23.1026 57.617 23.0958H51.5559L51.5407 1.06806ZM56.5772 21.7161C59.4894 21.6863 62.5984 21.5447 64.8769 19.2933C66.966 17.2297 67.4676 15.0038 67.4959 12.165C67.467 9.26533 67.1155 7.06822 65.0889 5.03967C62.4563 2.4041 59.4727 2.45452 56.5615 2.48478H53.9823L53.9976 21.7161H56.5772ZM35.8347 1.04357V14.6052C35.8803 16.2063 35.8599 18.328 36.8399 19.9411C37.5592 21.1269 39.046 22.3126 41.453 22.314C44.1297 22.3169 45.2802 21.3655 46.1118 20.1942C47.1993 18.6632 47.4102 16.3609 47.4213 14.6047V1.04357H49.8283V14.6052C49.8283 16.8705 49.5969 19.0445 48.013 20.9179C46.4948 22.7602 44.5295 23.8032 41.4499 23.7571C37.8787 23.7029 36.1117 22.5613 34.6773 20.8344C33.2425 19.1074 32.955 16.9708 32.9434 14.7809V1.04357H35.8347ZM12.7203 4.85574C12.672 3.92935 11.9286 1.37638 8.53739 1.33364C5.88536 1.30002 3.98513 3.09805 4.24377 5.38016C4.41166 6.86123 6.15869 7.66564 8.67589 8.9234C11.1065 10.1375 10.1737 9.61062 12.7067 11.0197C15.1525 12.3807 16.995 14.3607 17.005 17.3834C17.0134 20.0924 13.9217 23.8974 8.65753 23.8993C3.00773 23.9012 0.283303 20.0554 0 17.2547L2.77375 17.2623C2.97678 19.7274 4.96252 22.3952 8.67642 22.4153C12.0037 22.4341 14.3283 19.9738 14.4747 17.3224C14.6258 14.5903 11.0032 12.7797 9.69106 12.1761C7.44353 11.1426 5.00869 10.2719 3.8907 9.41949C2.42067 8.29812 1.65522 7.30498 1.6185 5.26298C1.55554 1.76489 5.07322 0 8.72573 0C11.8783 0 15.1258 1.9325 15.1551 4.85814L12.7203 4.85574ZM98.1524 11.8039C98.1524 18.2977 92.9654 23.7831 86.9273 23.7831C81.0855 23.7831 75.7306 18.388 75.7306 11.9849C75.7306 5.4911 80.8888 0.00528344 86.9273 0.00528344C92.8242 0.00528344 98.1524 5.40081 98.1524 11.8039ZM78.3936 11.9854C78.3516 18.0562 82.1458 22.447 86.8869 22.447C91.796 22.447 95.5109 18.1152 95.4883 11.8044C95.4668 5.76388 91.8694 1.37734 86.9588 1.39607C82.0855 1.4148 78.4377 5.76388 78.3936 11.9854ZM71.7381 1.0743H74.1677V23.091H71.7381V1.0743ZM22.2078 2.4867H15.2223L15.2344 1.06662H31.6796L31.6675 2.4867H24.8373V23.0723H22.2078V2.4867ZM85.3041 27.7379C85.0438 27.8007 84.7753 27.8307 84.5061 27.8272C83.9568 27.8272 83.3215 27.5645 83.3215 26.8273C83.3215 26.093 83.8687 25.8107 84.6247 25.8107C84.7601 25.8107 85.047 25.8246 85.248 25.8971L85.2039 26.3221C85.0511 26.2415 84.8782 26.1982 84.7018 26.1963C84.2548 26.1963 83.8892 26.3725 83.8892 26.8273C83.8892 27.2101 84.1751 27.4416 84.577 27.4416C84.6441 27.4434 84.7108 27.4319 84.7727 27.408V27.0223H84.45V26.6535H85.3046L85.3041 27.7379ZM78.1366 25.8779H79.0022L79.4397 27.1731H79.446L79.903 25.8779H80.7361V27.8272H80.1989L80.2073 26.3298H80.202L79.6753 27.8272H79.1701L78.668 26.3298H78.6628L78.6743 27.8272H78.1366V25.8779ZM81.7996 25.8779H82.4737L83.268 27.8272H82.6657L82.512 27.4108H81.7382L81.575 27.8272H81.0168L81.7996 25.8779ZM82.1369 26.2794H82.1306L81.8651 27.042H82.3814L82.1369 26.2794ZM86.2826 25.8779H86.9557L87.751 27.8272H87.1487L86.995 27.4108H86.2212L86.058 27.8272H85.4998L86.2826 25.8779ZM86.6194 26.2794H86.6131L86.3476 27.042H86.8639L86.6194 26.2794ZM89.5584 26.2904L88.5479 27.4416H89.5647V27.8272H87.9509V27.4132L88.9325 26.2626H87.9771V25.8779H89.5584V26.2904ZM89.9776 25.8779H90.5269V27.8272H89.9776V25.8779ZM91.0258 25.8779H91.7256L92.4234 27.2014H92.4287L92.4203 25.8779H92.9223V27.8272H92.2398L91.5195 26.495H91.5137L91.531 27.8272H91.0258V25.8779ZM93.3998 25.8779H94.854V26.2467H93.9501V26.6482H94.8037V27.0166H93.9501V27.4584H94.8855V27.8272H93.3998V25.8779Z" fill="black"/>
</svg>
