<svg width="164" height="27" viewBox="0 0 164 27" fill="none" xmlns="http://www.w3.org/2000/svg">
<path fill-rule="evenodd" clip-rule="evenodd" d="M82.7026 14.7713L83.0656 15.0433C83.0201 14.6358 83.0888 13.9535 83.0888 13.9535C82.8149 14.1345 82.7481 14.4752 82.7481 14.4752L82.3619 14.5207L82.7026 14.7713ZM97.5802 17.7224C97.5348 17.6314 97.4661 17.5646 97.3519 17.5646C97.2395 17.5646 97.1254 17.6769 97.1254 17.8365C97.1254 17.9962 97.2395 18.1085 97.3519 18.1085C97.4874 18.1085 97.6025 17.9962 97.6025 17.8365C97.6016 17.792 97.5802 17.7679 97.5802 17.7224ZM97.571 16.6567C97.5765 16.6762 97.5802 16.7003 97.5802 16.7235C97.5792 16.7798 97.5612 16.8345 97.5286 16.8804C97.4959 16.9263 97.4502 16.9612 97.3974 16.9807V17.3158C97.4601 17.3219 97.5208 17.341 97.5758 17.3719C97.6308 17.4027 97.6787 17.4446 97.7167 17.4949C97.79 17.5934 97.8294 17.7129 97.829 17.8356C97.829 18.0807 97.6898 18.2784 97.4865 18.3397C98.0472 18.296 98.398 18.245 98.398 18.245C97.8522 18.1308 98.1697 17.8133 98.1697 17.8133C98.4203 17.6082 98.8965 17.4485 98.8965 17.4485C98.3294 17.3798 98.0119 16.9268 97.8736 16.6548H97.571V16.6567ZM97.285 18.3536C97.0678 18.3174 96.8989 18.1048 96.8989 17.8365C96.8989 17.5794 97.0548 17.3724 97.2618 17.3251V16.9918C97.1996 16.9822 97.142 16.9532 97.0973 16.9088C97.0526 16.8644 97.0231 16.807 97.0131 16.7449L97.0112 16.7467C96.7847 16.8136 96.5795 16.8136 96.5795 16.8136C96.534 16.9278 96.625 16.9732 96.625 16.9732C97.1022 17.3139 96.7847 17.6314 96.7847 17.6314C96.5582 17.8365 96.444 17.8365 96.444 17.8365C96.2175 17.9052 95.6717 18.3824 95.6717 18.3824C96.2788 18.4009 96.8348 18.3824 97.285 18.3536ZM91.0609 16.2473C91.1018 16.2474 91.1417 16.2348 91.1751 16.2111L91.6281 16.407C91.6281 16.5425 91.719 16.6576 91.8332 16.6576C91.9038 16.6576 91.966 16.6121 92.0022 16.5472L92.3865 16.6038C92.4115 16.718 92.4895 16.7941 92.5823 16.7941C92.6872 16.7941 92.7931 16.6975 92.807 16.5583L93.1282 16.4061C93.1662 16.4627 93.2229 16.4989 93.2878 16.4989C93.4002 16.4989 93.5143 16.3847 93.5143 16.2482L93.7195 15.9094C94.1055 15.9394 94.4935 15.9316 94.878 15.8862C95.4907 15.5669 95.991 15.3859 95.991 15.3859C95.8081 15.5214 95.6262 15.6365 95.512 15.772C95.3979 15.8855 95.2918 16.0068 95.1945 16.135C95.1124 16.1945 95.0465 16.2735 95.0027 16.3649C94.9589 16.4564 94.9387 16.5573 94.9439 16.6585C94.9614 16.7881 95.0077 16.9121 95.0794 17.0215C95.1936 17.157 95.3533 17.2267 95.3533 17.2267L95.6039 17.4532C95.3988 17.6128 94.9439 17.7252 94.9439 17.7252C94.6933 17.818 94.3544 17.6583 94.3544 17.6583C93.5589 17.4773 93.2869 17.8393 93.2869 17.8393C93.1272 18.0203 92.8321 18.0445 92.8321 18.0445L92.9676 18.2496C92.6724 18.3406 92.5146 18.2264 92.5146 18.2264C92.4914 17.8403 92.6956 17.4541 92.6956 17.4541C92.6046 16.8414 91.3319 16.9537 91.3319 16.9537L91.0154 16.6567L90.9467 16.588L90.2198 15.9066C90.2198 16.1118 90.1289 16.407 90.0166 16.6576C89.9256 16.8609 89.8114 17.0438 89.8114 17.0438L89.5394 16.9064C89.5911 16.8307 89.6292 16.7465 89.6517 16.6576C89.8782 16.1118 90.0379 15.3395 90.0379 15.3395C90.1734 15.3395 90.2885 15.3627 90.3786 15.3849C90.4473 15.4304 90.4928 15.4536 90.4928 15.4536C90.5457 15.4787 90.6032 15.5028 90.6654 15.5279L90.9161 15.8834C90.8923 15.9253 90.8798 15.9727 90.8799 16.0208C90.8789 16.1563 90.9467 16.2473 91.0609 16.2473ZM93.597 15.8936L93.4642 16.0821C93.4459 16.0509 93.4201 16.0248 93.3892 16.0061C93.3582 15.9875 93.323 15.9769 93.2869 15.9753C93.1727 15.9753 93.0818 16.0877 93.0818 16.2473C93.0818 16.2687 93.0836 16.2909 93.0892 16.3104L92.7996 16.446C92.7689 16.3392 92.6761 16.2464 92.5823 16.2464C92.47 16.2464 92.379 16.3819 92.379 16.5184L92.0328 16.459C92.0365 16.4416 92.0383 16.4238 92.0384 16.4061C92.0384 16.2705 91.9455 16.1322 91.8332 16.1322C91.7478 16.1322 91.6773 16.2083 91.6466 16.303L91.2456 16.122C91.2592 16.09 91.2658 16.0555 91.2651 16.0208C91.2651 15.9066 91.1741 15.7943 91.06 15.7943C91.0419 15.7936 91.0238 15.7968 91.007 15.8036L90.9003 15.6114H90.8984C91.4768 15.7999 92.1943 15.9308 92.1943 15.9308H92.6947L92.8543 15.6801C93.0604 15.7952 93.3268 15.8612 93.597 15.8936ZM90.9049 12.0153C90.9235 12.0385 90.9411 12.0598 90.9597 12.0793L90.9309 12.1304C90.9157 12.1203 90.8981 12.1145 90.8799 12.1137C90.7889 12.1137 90.7202 12.2046 90.7202 12.2956L90.6988 12.2733L90.516 12.0682L90.4491 12.0004L90.0398 11.5688C89.5626 10.9329 88.8358 11.5688 88.8358 11.5688L88.7235 11.4778C89.1078 11.2504 88.7689 10.9552 88.7689 10.9552L89.5181 9.02432L89.3129 8.77462C89.6777 8.02456 88.9054 8.00228 88.9054 8.00228C88.677 7.32092 88.2686 7.63932 88.2686 7.63932C88.1331 6.98024 87.6318 7.32092 87.6318 7.32092C87.4508 6.86698 87.0191 7.13897 87.0191 7.13897L87.0405 6.07144L86.542 6.09372L85.9961 6.07144L86.0416 7.16125C85.4977 6.88927 85.4048 7.43417 85.4048 7.43417C84.7699 7.07028 84.7699 7.77485 84.7699 7.77485C84.2463 7.61518 84.2695 8.11553 84.2695 8.11553C83.5659 8.1833 83.6569 8.79689 83.6569 8.79689L84.2008 10.659C84.0653 10.9997 82.4529 12.976 82.4529 12.976L81.7706 12.7718L81.7251 12.6586C81.8838 12.7495 81.998 12.704 81.998 12.704C81.9303 12.4766 82.0203 12.0227 82.0203 12.0227C82.2254 11.1371 81.8616 10.8187 81.8616 10.8187C81.8838 10.4548 81.6341 10.0241 81.6341 10.0241C81.9748 9.59244 81.4754 9.16078 81.4754 9.16078L81.4067 9.0466L81.3844 8.11553C81.2934 8.11553 81.248 8.00135 81.248 8.00135C81.1115 7.61519 80.8618 7.86582 80.8618 7.86582C80.6799 7.45737 80.3847 7.77485 80.3847 7.77485C80.134 7.43417 79.8843 7.77485 79.8843 7.77485L79.6801 7.11577L78.9987 7.38775L79.2262 8.1146C78.7258 8.00042 78.8855 8.50077 78.8855 8.50077C78.4538 8.52304 78.658 8.90921 78.658 8.90921C78.2496 8.9547 78.4083 9.40956 78.4083 9.40956L78.8623 10.1587C78.4984 10.5671 78.84 10.8401 78.84 10.8401C78.9542 11.0452 79.0906 11.0452 79.0906 11.0452C78.8855 11.6588 79.1584 12.2947 79.1584 12.2947C78.8632 12.6354 78.4315 12.9073 78.0454 13.1116C77.4782 13.3845 76.9778 13.5209 76.9778 13.5209C76.0913 13.7261 74.3434 14.2933 74.3434 14.2933C73.7298 14.4511 72.7532 14.7463 72.7532 14.7463C71.5269 15.1111 71.2085 14.7249 71.2085 14.7249C70.9134 14.5421 71.1408 14.0649 71.1408 14.0649C71.436 13.4745 72.0496 13.3381 72.0496 13.3381C72.4812 13.6119 72.64 13.7697 72.64 13.7697C72.9119 14.0436 73.39 14.0204 73.39 14.0204L73.4123 13.9294C73.6165 13.9526 73.753 13.8839 73.753 13.8839C73.6165 13.7484 73.6165 13.5887 73.6165 13.5887C73.6165 13.4755 73.4578 13.2944 73.4578 13.2944L76.6149 13.158C76.7291 13.1366 76.8191 13.1366 76.9101 13.1125C77.9999 12.9083 78.2505 12.6586 78.2505 12.6586C78.9997 12.0672 78.6822 11.0907 78.6822 11.0907C78.2728 10.1373 77.4782 10.0909 77.4782 10.0909C76.8646 9.93219 76.4107 10.0232 76.4107 10.0232C76.07 10.0464 75.3663 9.86442 75.3663 9.86442C75.3431 9.99995 75.6383 10.4316 75.6383 10.4316C75.5365 10.4408 75.4339 10.4295 75.3365 10.3984C75.2391 10.3673 75.1488 10.3171 75.0711 10.2506C74.7073 9.90991 74.1169 10.0686 74.1169 10.0686C74.2078 10.2506 74.7537 10.7054 74.7537 10.7054C74.4353 10.7277 73.5729 10.3648 73.5729 10.3648C73.7316 11.1148 74.5949 11.6365 74.5949 11.6365C75.617 12.0682 76.5026 11.6142 76.5026 11.6142C76.9342 11.3423 77.3659 11.1826 77.3659 11.1826C77.4309 11.1529 77.5017 11.1376 77.5732 11.138C77.6447 11.1383 77.7153 11.1541 77.7801 11.1844C77.8449 11.2147 77.9023 11.2587 77.9485 11.3133C77.9946 11.368 78.0283 11.432 78.0472 11.501C78.0017 12.2733 77.4336 12.2956 77.4336 12.2956C75.798 12.6363 73.6174 12.4089 73.6174 12.4089C73.7762 12.2046 73.7994 11.682 73.7994 11.682L73.6174 11.7275C72.6641 11.6365 72.4135 11.8417 72.4135 11.8417C72.0728 12.0459 71.914 12.4775 71.914 12.4775C71.4824 12.6595 71.1417 12.886 70.8911 13.1134C70.2552 13.7279 70.1874 14.4084 70.1874 14.4084C70.1419 15.2262 70.5959 15.3404 70.5959 15.3404C70.1874 16.1341 70.8001 16.4302 70.8001 16.4302C71.073 16.2269 71.1863 15.9985 71.1863 15.9985C71.7312 15.591 73.3213 15.2494 73.3213 15.2494C73.0029 15.5 72.821 16.2482 72.821 16.2482C72.549 16.3392 72.0941 16.1796 72.0941 16.1796C71.8444 16.1582 71.8444 16.3624 71.8444 16.3624L71.7302 16.6344L71.5715 17.1348C70.595 17.0893 70.7314 17.6565 70.7314 17.6565L70.595 19.1779C70.8224 19.7451 71.1853 19.6551 71.1853 19.6551V19.0879H71.4351C71.7302 19.7005 72.1851 19.837 72.1851 19.837H72.3216C72.4803 19.7915 72.549 20.0199 72.549 20.0199L72.7077 20.0412L72.73 19.6551L72.911 19.6337C73.0252 19.6792 73.093 19.8602 73.093 19.8602H73.2285C73.274 19.7692 73.2972 19.5195 73.2972 19.5195C73.4791 19.4053 73.4327 18.9978 73.4327 18.9978C73.7966 18.9291 74.1828 19.0665 74.1828 19.0665L74.1605 19.4053C74.4325 19.8602 74.7741 19.9289 74.7741 19.9289C75.0015 19.9957 75.3413 20.0412 75.7507 20.0644C76.4552 20.1099 77.3408 20.0858 78.1586 20.0644C79.0462 20.0197 79.9324 19.9513 80.8163 19.8593C80.9073 19.9948 80.9518 19.9735 80.9518 19.9735C81.338 20.109 81.7697 19.6996 81.7697 19.6996L81.6341 19.9735C81.9293 19.9503 82.2477 19.7451 82.2477 19.7451C82.3265 19.8531 82.4377 19.9332 82.5652 19.9735L82.6339 19.9048L82.7249 20.0403C82.9059 19.9493 83.0201 19.6328 83.0201 19.6328C83.2252 19.8138 83.5204 19.7683 83.5204 19.7683L83.6114 19.9038L83.6782 19.7897C83.8138 19.8825 84.0644 19.9948 84.0644 19.9948C84.3382 19.6541 84.2241 19.1556 84.2241 19.1556L84.2927 19.268L84.3596 18.996C84.4951 19.1315 84.7244 19.1315 84.7244 19.1315C84.2927 19.3125 84.5415 19.6319 84.5415 19.6319C84.5949 19.7215 84.6747 19.7925 84.7699 19.8351C84.8418 19.8262 84.9145 19.8448 84.9734 19.8871C85.0322 19.9294 85.0729 19.9924 85.0874 20.0635C85.428 20.2232 85.6332 19.8584 85.6332 19.8584L85.6787 19.5864C85.61 19.4267 85.61 19.177 85.61 19.177L85.6787 19.4722L85.791 19.5409L86.5633 20.1535L87.2233 19.6077C87.5863 19.8584 88.0867 19.8584 88.0867 19.8584C88.2677 19.8584 88.1321 19.6319 88.1321 19.6319C88.7235 20.109 89.6081 19.9948 89.6081 19.9948C89.7436 19.8825 89.6536 19.8138 89.6536 19.8138C89.8133 19.7451 90.0853 19.9735 90.0853 19.9735C90.3118 20.1313 90.6524 19.9948 90.6524 19.9948C90.6311 19.8825 90.5169 19.8593 90.5169 19.8593C90.6766 19.8593 90.5856 19.6328 90.5856 19.6328C90.7434 19.6541 90.8808 19.8361 90.8808 19.8361C91.0163 20.0189 91.267 19.9735 91.267 19.9735L91.2883 19.8593C91.448 19.9735 91.81 19.9948 91.81 19.9948C91.9028 19.9038 91.8332 19.7683 91.8332 19.7683C93.4688 20.2687 95.8982 20.1758 95.8982 20.1758C99.0562 20.1545 99.4879 19.5409 99.4879 19.5409C99.602 19.4035 99.5333 19.2457 99.5333 19.2457V19.0647C99.693 18.9718 99.9427 19.0415 99.9427 19.0415L99.7144 19.5186L99.6475 19.6783C100.192 20.2909 101.009 19.6096 101.009 19.6096V19.4044C101.169 19.3376 101.305 19.1556 101.305 19.1556L101.669 19.2466C101.715 19.4518 101.578 19.6783 101.578 19.6783C102.146 19.8361 102.349 19.2466 102.349 19.2466L102.056 17.7233C101.601 17.2016 100.783 17.2916 100.783 17.2916L100.76 16.9055C100.714 16.7699 100.556 16.679 100.419 16.6567L100.243 16.5936L100.078 16.6567C99.8276 16.678 99.4637 16.678 99.4637 16.678V16.6567L99.5092 16.1331V15.5437L99.4637 15.3385L99.9427 15.4072C100.306 15.565 101.147 15.565 101.147 15.565C101.419 15.6792 101.419 15.9512 101.419 15.9512L101.328 16.2705C102.1 16.2018 102.009 15.3385 102.009 15.3385C102.553 14.8837 102.417 13.6574 102.417 13.6574C102.348 13.3622 102.236 13.1803 102.166 13.1116L102.145 13.0902C102.145 12.317 101.372 11.9763 101.372 11.9763C101.237 11.8621 101.077 11.8621 101.077 11.8621C100.896 11.8175 100.645 11.5214 100.645 11.5214C100.35 12.0663 100.6 12.4748 100.6 12.4748C100.145 12.3838 97.8727 12.8387 97.8727 12.8387C97.3287 12.9751 96.4208 12.6799 96.4208 12.6799C95.8518 12.3615 95.9437 11.9531 95.9437 11.9531C96.056 11.294 96.6018 11.385 96.6018 11.385H96.7615C97.2386 11.294 97.5793 11.4759 97.5793 11.4759C98.5327 11.9299 100.235 11.4759 100.235 11.4759C101.053 11.1575 101.281 10.09 101.281 10.09C100.735 10.5903 100.214 10.4994 100.214 10.4994C100.098 10.5226 99.9847 10.553 99.8731 10.5903C99.9641 10.2042 100.417 10.0222 100.417 10.0222C99.8276 9.77252 99.1917 10.2042 99.1917 10.2042C98.8743 10.5449 98.1688 10.6581 98.1688 10.6581C98.6905 10.4539 98.9643 9.88577 98.9643 9.88577C98.6236 10.09 98.011 10.0445 98.011 10.0445C97.079 9.86256 96.0569 10.7027 96.0569 10.7027C95.1249 11.566 95.5798 12.5202 95.5798 12.5202C95.694 12.7922 95.966 12.9974 96.2611 13.1106C96.6928 13.3158 97.1458 13.3613 97.1458 13.3613C98.1233 13.4745 100.123 13.2471 100.123 13.2471C100.304 13.2016 100.509 13.2016 100.509 13.2016C100.144 13.4745 100.077 14.0881 100.077 14.0881C100.44 13.9526 100.712 13.9526 100.712 13.9526L100.691 14.0436C101.123 13.9749 101.485 14.0436 101.485 14.0436C101.713 14.0649 101.758 13.8625 101.758 13.8625C102.03 14.2701 101.485 14.7259 101.485 14.7259C101.167 15.0433 100.463 14.7927 100.463 14.7927C100.077 14.6117 99.0766 14.5421 99.0766 14.5421C98.8956 14.3156 96.8283 13.9071 96.8283 13.9071C96.7141 13.702 96.5108 13.7929 96.5108 13.7929L96.328 13.7697C96.147 13.3381 95.7385 13.5887 95.7385 13.5887C95.4433 13.5432 94.9662 13.2712 94.6923 13.1116C94.5568 13.0438 94.489 12.976 94.489 12.976C95.5788 11.7721 95.5102 10.478 95.5102 10.478C95.3746 8.61495 93.8532 8.31975 93.8532 8.31975C93.6267 7.77485 92.8998 7.72937 92.8998 7.72937L92.8543 7.84354L92.9212 8.00228C92.8998 8.11646 93.0353 8.32068 93.0353 8.32068L92.7401 8.38845L90.9003 7.32092C90.4473 7.20767 90.6283 7.5929 90.6283 7.5929L90.7193 7.72937L92.3094 8.97883C92.1498 9.29631 91.6058 9.70569 91.6058 9.70569L91.4006 9.75117L91.15 10.0232L91.1732 10.387C91.059 10.478 90.8084 10.478 90.8084 10.478L90.787 10.7054C90.9448 10.9329 91.3997 10.9329 91.3997 10.9329L91.7627 11.2958C91.8768 11.3645 91.9678 11.2736 91.9678 11.2736L92.2853 10.9106L92.7169 10.7064C92.8311 10.7741 93.0363 10.7974 93.0363 10.7974C92.7411 10.9115 92.4236 11.3423 92.4236 11.3423C92.173 11.2736 91.7636 11.3645 91.7636 11.3645L91.7181 11.6142L91.7051 11.6746L91.6058 11.6142C91.4461 10.9561 90.9458 11.3645 90.9458 11.3645C90.865 11.4517 90.8168 11.564 90.8093 11.6826C90.8019 11.8012 90.8356 11.9187 90.9049 12.0153ZM90.9151 12.4905C90.9699 12.4655 91.0145 12.3875 91.0145 12.2947C91.0145 12.2684 91.0088 12.2424 90.9978 12.2186L91.0284 12.1424C91.0995 12.2001 91.1884 12.2312 91.28 12.2306C91.5139 12.2232 91.6049 11.8853 91.6049 11.8853H91.6615L91.6049 12.1573C91.3765 12.2937 91.1732 12.7477 91.1732 12.7477L90.9151 12.4905ZM91.0572 11.8417C90.9356 11.5892 91.1964 11.4769 91.1964 11.4769C91.5139 11.4314 91.447 11.8398 91.447 11.8398C91.3616 11.9466 91.293 11.9865 91.2363 11.9911C91.1129 12.0013 91.059 11.8435 91.0572 11.8417ZM78.658 16.6335C78.4761 16.7931 78.1577 17.0197 77.7493 17.0429L77.5673 17.3362L77.999 17.4504L78.0899 17.4959L78.4761 17.61C78.4761 17.61 78.4984 17.3594 78.7945 17.4049C78.7945 17.4049 78.9987 16.8591 79.8165 17.0419C79.8165 17.0419 79.953 16.9964 80.134 17.0874C80.2027 17.1329 80.2705 17.1784 80.3382 17.2452L80.2473 16.95C80.2473 16.95 80.3382 16.8145 80.5647 16.8591C80.5647 16.8591 80.4738 16.7681 80.406 16.6326C80.3099 16.4996 80.2547 16.3415 80.2473 16.1777C80.2473 16.1777 80.5193 16.0654 80.7922 16.1109V15.8602H80.9509L80.6557 15.6792C80.6557 15.6792 79.9057 16.5184 78.4975 16.1109C78.219 16.0321 77.9519 15.9176 77.7028 15.7702C77.7028 15.7702 77.9758 16.4515 78.8391 16.4283C78.84 16.4283 78.7722 16.5193 78.658 16.6335ZM75.0015 16.6335C75.4555 16.769 76.251 16.8386 76.251 16.8386C76.1823 16.9055 76.1145 16.9742 76.0468 17.0197C75.7971 17.2248 75.5928 17.2703 75.5928 17.2703C75.4564 17.4968 75.5251 17.9071 75.5251 17.9071C75.5928 17.9981 75.7971 18.0649 75.979 18.1336C76.2064 18.2246 76.4329 18.2933 76.4329 18.2933C76.1558 18.3496 75.87 18.3496 75.5928 18.2933C75.3422 18.2701 75.1844 18.2004 75.1844 18.2004L75.2977 17.9739C75.2067 17.3826 74.3211 17.3158 74.3211 17.3158L74.3666 17.0438C74.4798 16.9064 74.594 16.7486 74.6395 16.6344C74.6677 16.5923 74.6905 16.5467 74.7073 16.4989C74.7527 16.5444 74.866 16.5899 74.9802 16.6344L75.0015 16.6335ZM91.1751 18.5188C91.1064 18.5643 91.0609 18.6098 91.0609 18.6998C91.0609 18.6998 91.1064 18.8354 91.4016 18.9264C91.4016 18.9264 91.447 18.6776 91.3784 18.4047C91.3774 18.4047 91.2651 18.4501 91.1751 18.5188ZM80.8163 18.1085L80.9751 18.063C80.9751 18.063 80.8163 17.9275 80.794 17.8365C80.794 17.8365 80.794 17.6555 80.5898 17.4959L80.6121 17.6555V17.882L80.6799 17.9507V18.1317L80.8163 18.1085ZM81.5432 18.905L81.5664 19.2457L81.8616 18.9264C81.8382 18.927 81.8151 18.921 81.7949 18.9092C81.7748 18.8974 81.7583 18.8802 81.7474 18.8595C81.6341 18.7685 81.5664 18.633 81.5664 18.633L81.5432 18.905ZM82.5698 16.6418C82.7425 16.6223 82.8873 16.6344 82.969 16.7328C82.9672 16.588 83.0303 16.4432 83.2466 16.4061C83.2466 16.4061 82.7694 16.3151 82.3378 16.1554C82.0658 16.0644 81.7929 15.9503 81.7019 15.8147L81.4977 15.8834L81.338 15.9503V16.019C81.338 16.019 81.7697 16.0858 81.9971 16.2696V16.1768C81.9971 16.1777 82.4102 16.2557 82.5698 16.6418ZM83.7683 17.5414C83.7683 17.4959 83.7915 17.4504 83.7915 17.3817L84.1321 17.7465C84.1321 17.7465 84.199 17.973 84.0635 18.1095C84.0635 18.1095 83.9966 18.0426 83.9056 17.9971C83.8489 17.9685 83.7864 17.9529 83.7228 17.9516L83.7014 17.6565C83.7014 17.6555 83.7469 17.61 83.7683 17.5414ZM56.149 5.13945C56.149 5.13945 59.5335 6.86606 59.9419 7.20674C60.3736 7.54742 60.1462 7.77485 60.1462 7.77485C60.1462 7.77485 59.9874 8.00135 59.6013 8.09232C59.2142 8.16009 59.3293 8.47849 59.3293 8.47849L59.2838 16.5425C60.8739 18.1095 62.3731 17.2694 62.3731 17.2694C62.9412 17.0884 62.8735 16.588 62.8735 16.588C62.8735 16.588 62.9876 9.00204 62.9412 8.75141C62.8957 8.47942 62.6692 8.47942 62.6692 8.47942C62.6692 8.47942 61.261 7.59291 61.0336 7.4351C60.783 7.27636 61.0559 7.02665 61.0559 7.02665C61.0559 7.02665 63.4406 5.36873 63.7823 5.05033C64.1229 4.75513 64.3959 4.93615 64.3959 4.93615C64.3959 4.93615 68.3253 7.1399 68.7792 7.48058C69.2332 7.82126 69.0067 7.93451 69.0067 7.93451L67.8936 9.04753C67.6662 9.27496 67.7795 9.47918 67.7795 9.47918L67.734 16.9296C67.4388 18.8372 64.4404 19.1111 64.4404 19.1111C60.8284 19.1566 59.1483 17.6119 59.1483 17.6119C57.7168 16.7254 56.0589 17.3381 56.0589 17.3381C53.9471 18.0649 53.7874 19.4286 53.7874 19.4286C53.7187 20.406 54.8094 20.8823 54.8094 20.8823C56.1499 21.7456 58.103 21.1997 58.103 21.1997C59.7609 20.6325 62.3276 19.7692 62.3276 19.7692C63.9401 19.4286 65.2118 19.7005 65.2118 19.7005C66.6655 20.0199 67.2336 20.7012 67.2336 20.7012C68.1647 21.6546 68.0969 22.8809 68.0969 22.8809C68.1647 25.5627 64.8711 26.4705 64.8711 26.4705C63.3952 26.7657 62.9867 26.4251 62.9867 26.4251C61.9415 26.1967 63.0545 26.0844 63.0545 26.0844C63.0545 26.0844 61.1459 26.1967 63.2132 26.1057C65.2805 26.0389 65.5079 25.04 65.5079 25.04C66.258 23.6987 65.0995 23.4722 65.0995 23.4722C63.5093 23.2457 61.7837 24.5397 61.7837 24.5397C57.922 26.2654 54.9923 24.8349 54.9923 24.8349C51.994 23.6764 52.3801 21.4504 52.3801 21.4504C52.4479 18.5662 54.2655 17.4309 54.2655 17.4309L54.1522 8.50356C54.0612 8.27613 53.8338 8.20836 53.8338 8.20836C53.8338 8.20836 52.5843 7.70801 52.3801 7.43603C52.1982 7.16311 52.4934 7.04986 52.4934 7.04986L55.3785 5.1413C55.7173 4.66323 56.149 5.13945 56.149 5.13945ZM0.180724 3.77672C-0.250929 3.48152 0.22621 3.32279 0.22621 3.32279L4.56502 0.142477H16.0349C18.5107 0.368979 18.3064 3.54929 18.3064 3.54929L18.261 15.2689C14.2405 16.0412 12.3097 19.4499 12.3097 19.4499C8.56129 18.3824 2.13384 19.3357 2.13384 19.3357C1.56573 19.3812 1.95189 18.9496 1.95189 18.9496C4.17792 15.0424 8.44804 15.1566 8.44804 15.1566C8.72374 15.151 8.99387 15.1584 9.25658 15.1751L9.27886 3.89554L0.180724 3.77672ZM5.90454 4.41259C6.74464 4.02643 6.5859 4.59454 6.5859 4.59454V11.113C6.51813 13.8616 4.35987 15.3617 4.35987 15.3617C3.72399 16.225 1.29374 17.2239 1.29374 17.2239C0.45364 17.5413 0.953058 16.7235 0.953058 16.7235C1.74767 15.5437 1.74767 14.7017 1.74767 14.7017V6.86606C1.74767 6.63863 1.83864 6.54765 1.83864 6.54765L5.90454 4.41259ZM9.64089 15.2076C11.6265 15.4072 13.083 16.1109 13.083 16.1109L13.0533 11.0712L13.0226 11.0944C13.018 11.0888 11.4288 8.99091 9.64832 11.1715L9.64089 15.2076ZM13.0496 10.5606L13.0375 8.44693C12.4295 9.01597 11.012 9.97303 9.65296 8.20093L9.64832 10.5941C11.1447 9.07538 12.4907 10.0213 13.0496 10.5606ZM13.0338 7.89552L13.0134 4.36711C13.1721 3.77672 12.3552 3.93545 12.3552 3.93545L9.66224 3.90018L9.65574 7.51957C11.1791 10.0445 12.8778 8.08582 13.0338 7.89552ZM44.382 2.36851C44.382 2.36851 49.379 0.756072 50.0148 0.597336C50.673 0.438599 50.6284 0.756077 50.6284 0.756077C50.6284 0.756077 50.4929 14.9746 50.6062 15.475C50.7194 15.9753 50.9468 15.8398 50.9468 15.8398C50.9468 15.8398 52.1053 16.6576 52.3551 16.7699C52.628 16.8841 52.4915 17.1561 52.4915 17.1561L49.6751 19.3376C49.6751 19.3376 45.0866 17.3158 44.7236 17.0893C44.2697 16.7699 44.5649 16.5889 44.5649 16.5889L45.3827 15.7711C45.3827 15.7711 45.5182 4.14154 45.2917 3.52794C45.0643 2.91434 44.3374 2.66463 44.3374 2.66463C44.1778 2.414 44.382 2.36851 44.382 2.36851ZM38.7724 4.77649C38.9311 5.16265 39.3396 5.09488 39.3396 5.09488C41.1571 4.36804 41.884 2.64143 41.884 2.64143C42.3379 0.93802 41.2704 0.48409 41.2704 0.48409C40.3161 -0.0840211 39.6125 0.36991 39.6125 0.36991C38.5217 0.9603 38.2265 2.09652 38.2265 2.09652C37.9545 3.59571 38.7724 4.77649 38.7724 4.77649ZM37.9545 5.54881C37.9545 5.54881 35.0017 7.3664 34.7742 7.70709C34.5468 8.04777 34.7297 8.20743 34.7297 8.20743C34.7297 8.20743 36.0014 9.00204 36.3421 9.1385C36.7051 9.25175 36.5686 9.4337 36.5686 9.4337L36.6596 15.3395C36.7051 15.4991 36.6596 15.9066 36.6596 15.9066C36.6596 15.9066 36.1592 16.316 35.8873 16.5434C35.5698 16.8154 35.8186 17.0893 35.8186 17.0893L40.3848 19.3831C40.3848 19.3831 43.4732 17.157 43.7461 17.0438C44.0181 16.9296 43.7461 16.7031 43.7461 16.7031C43.7461 16.7031 42.4057 15.9308 42.1792 15.8166C41.9527 15.7024 42.0437 15.4759 42.0437 15.4759C42.0437 15.4759 41.8617 9.63699 41.9982 9.13757C42.1114 8.66044 42.2702 8.81917 42.2702 8.81917C42.2702 8.81917 42.6786 8.70592 43.0425 8.47849C43.3832 8.25106 43.0657 8.04683 43.0657 8.04683C43.0657 8.04683 38.8179 5.82173 38.5004 5.54881C38.1811 5.2759 37.9545 5.54881 37.9545 5.54881ZM19.1354 15.384C19.1243 15.3385 19.4872 18.814 23.9393 19.3821L26.8922 16.9983C26.8922 16.9983 27.0509 16.7245 27.2783 16.951L32.2753 19.3821L35.3191 16.9983C35.3191 16.9983 35.4556 16.7245 35.2282 16.4525L33.1154 15.0433V9.25083C33.1154 9.25083 33.0931 8.97884 33.2741 8.93335L34.0919 8.2752C34.0919 8.2752 34.2284 8.04776 33.9564 7.75257C33.7058 7.43509 28.732 4.98163 28.732 4.98163C28.732 4.98163 28.5501 4.70965 28.0952 5.02712C28.0952 5.02712 22.6666 7.20767 20.5315 10.0009C20.5325 10.0009 18.8291 11.0907 19.1354 15.384ZM23.3944 13.5219C23.5308 13.7707 22.4856 12.045 22.9859 10.1596C22.9859 10.1596 23.0546 8.50169 24.9845 7.6616L27.5967 9.365L27.5512 16.0877C27.5512 16.0877 27.2106 16.6567 26.3705 16.2705C26.3705 16.2705 24.2122 15.203 23.3944 13.5219ZM148.573 5.72983C148.573 5.72983 145.621 7.52421 145.393 7.8881C145.166 8.22878 145.347 8.38752 145.347 8.38752C145.347 8.38752 146.62 9.18213 146.96 9.29631C147.323 9.41049 147.187 9.61379 147.187 9.61379L147.278 15.5195C147.323 15.6792 147.278 16.0867 147.278 16.0867C147.278 16.0867 146.778 16.4729 146.506 16.7012C146.188 16.9732 146.439 17.2452 146.439 17.2452L151.004 19.5622C151.004 19.5622 154.093 17.3362 154.365 17.1997C154.637 17.0874 154.365 16.8591 154.365 16.8591C154.365 16.8591 153.047 16.0867 152.798 15.9744C152.57 15.8602 152.661 15.6337 152.661 15.6337C152.661 15.6337 152.48 9.79573 152.616 9.29631C152.73 8.84238 152.889 8.97883 152.889 8.97883C152.889 8.97883 153.297 8.86466 153.662 8.63815C154.002 8.41072 153.683 8.22971 153.683 8.22971C153.683 8.22971 149.435 6.00368 149.118 5.73076C148.823 5.45785 148.573 5.72983 148.573 5.72983ZM103.416 3.799C102.713 3.41283 103.213 3.23089 103.213 3.23089L106.755 0.959367C106.936 0.80063 107.096 1.02806 107.096 1.02806L110.322 2.91341C110.322 2.91341 114.682 0.596408 114.978 0.415392C115.159 0.301213 115.319 0.460882 115.319 0.460882L119 2.50496L122.702 0.187967C123.109 -0.152715 123.223 0.0737863 123.223 0.0737863L127.562 2.61822C127.925 2.84565 127.765 2.91341 127.765 2.91341V14.6804C127.925 16.1322 129.152 16.7022 129.152 16.7022C129.493 16.9742 129.333 17.1793 129.333 17.1793L125.993 19.5632C123.109 18.5857 122.837 16.2473 122.837 16.2473V5.00298C122.768 4.61682 122.496 4.52585 122.496 4.52585L120.267 3.38962L120.283 8.38659H122.678L120.294 11.8231L120.309 15.9595L121.976 17.0874C122.202 17.3594 121.84 17.4049 121.84 17.4049L118.386 19.5622L113.253 16.8368C112.776 16.5175 113.139 16.3364 113.139 16.3364L114.252 15.6328V12.0208H111.808L111.817 16.6576L112.641 17.1784C112.891 17.4504 112.595 17.6314 112.595 17.6314L109.165 19.5622L104.691 17.1997C104.305 16.9491 104.712 16.7467 104.712 16.7467L105.985 16.0199V5.61658L103.531 3.84541L103.416 3.799ZM119.958 3.24945C119.281 3.03873 119.386 3.45924 119.386 3.45924L119.431 8.02455V8.38845H119.977L119.958 3.24945ZM119.988 12.0218H119.431V15.3617C119.453 15.4527 119.726 15.565 119.726 15.565L120 15.7516L119.988 12.0218ZM111.807 11.3757L113.82 8.38752H114.251V5.00298C114.184 4.82197 113.934 4.64003 113.934 4.64003L111.794 3.52701L111.807 11.3757ZM111.487 3.45368C110.859 3.4676 110.823 3.8909 110.823 3.8909L110.776 16.0208C110.776 16.0877 110.981 16.1331 110.981 16.1331L111.508 16.4664L111.487 3.45368ZM129.758 15.384C129.747 15.3385 130.11 18.814 134.563 19.3821L137.515 16.9983C137.515 16.9983 137.675 16.7245 137.901 16.951L142.898 19.3821L145.942 16.9983C145.942 16.9983 146.078 16.7245 145.851 16.4525L143.739 15.0433V9.25083C143.739 9.25083 143.718 8.97884 143.899 8.93335L144.717 8.2752C144.717 8.2752 144.852 8.04776 144.581 7.75257C144.331 7.43509 139.356 4.98163 139.356 4.98163C139.356 4.98163 139.175 4.70965 138.719 5.02712C138.719 5.02712 133.29 7.20767 131.155 10.0009C131.154 10.0009 129.452 11.0907 129.758 15.384ZM134.017 13.5219C134.153 13.7707 133.109 12.045 133.61 10.1596C133.61 10.1596 133.677 8.50169 135.607 7.6616L138.22 9.365L138.174 16.0877C138.174 16.0877 137.834 16.6567 136.992 16.2705C136.992 16.2705 134.835 15.203 134.017 13.5219ZM155.001 2.36851C155.001 2.36851 159.974 0.756072 160.634 0.597336C161.269 0.438599 161.247 0.756077 161.247 0.756077C161.247 0.756077 161.111 15.1343 161.224 15.6347C161.338 16.1331 161.564 16.0208 161.564 16.0208C161.564 16.0208 162.723 16.8386 162.973 16.951C163.245 17.0651 163.109 17.3371 163.109 17.3371L160.293 19.5186C160.293 19.5186 155.705 17.4968 155.342 17.2471C154.887 16.9519 155.182 16.7486 155.182 16.7486L156 15.953C156 15.953 156.136 4.11926 155.909 3.50566C155.683 2.89206 154.956 2.66556 154.956 2.66556C154.797 2.39079 155.001 2.36851 155.001 2.36851ZM149.391 4.95843C149.55 5.3446 149.958 5.2759 149.958 5.2759C151.776 4.52584 152.503 2.80016 152.503 2.80016C152.956 1.11903 151.889 0.665106 151.889 0.665106C150.935 0.0747155 150.232 0.550925 150.232 0.550925C149.14 1.14132 148.847 2.27754 148.847 2.27754C148.573 3.77672 149.391 4.95843 149.391 4.95843Z" fill="black"/>
<path fill-rule="evenodd" clip-rule="evenodd" d="M79.2262 7.4798L79.5449 7.32092V7.54857L79.6582 7.43521L79.7939 7.75297L79.6127 7.7762L79.727 7.88956C79.9769 8.07167 79.818 8.23055 79.818 8.23055L79.7038 8.32161C79.3395 8.45726 79.4538 7.88956 79.4538 7.88956L79.3395 8.00292L79.2039 7.66192H79.386L79.2262 7.4798Z" fill="white"/>
<path fill-rule="evenodd" clip-rule="evenodd" d="M78.8855 8.91013C79.1584 8.9324 79.1807 9.13756 79.1807 9.13756C79.2029 8.75139 79.4981 9.09207 79.4981 9.09207C79.4023 9.12191 79.3161 9.1767 79.2484 9.25081C79.2484 9.47824 79.5891 9.47824 79.5891 9.47824C79.8843 9.31857 79.8388 9.13756 79.8388 9.13756C79.8843 8.88692 79.5891 9.02338 79.5891 9.02338L79.4749 8.77367L79.6569 8.75139V8.66042L79.4981 8.56945L79.9985 8.31973L79.9298 8.52396L79.9753 8.56945L80.0885 8.43299L80.1795 8.79687C79.9521 8.75139 80.043 8.95561 80.043 8.95561C80.1721 9.09486 80.2751 9.10785 80.3503 9.07814C80.4142 9.04741 80.4658 8.99608 80.497 8.93241C80.6334 8.77367 80.4747 8.70497 80.4747 8.70497C80.2937 8.77274 80.2705 8.84143 80.2705 8.84143C80.1795 8.3643 80.4292 8.45434 80.4292 8.45434C80.3614 8.22784 80.4292 8.11365 80.4292 8.11365C80.6111 8.20463 80.6334 8.38564 80.6334 8.38564C80.9054 8.09045 80.9509 8.40792 80.9509 8.40792C80.5879 8.47662 80.7467 8.68084 80.7467 8.68084C80.8321 8.81544 80.8989 8.83679 80.9518 8.80337C81.0669 8.72818 81.1096 8.38286 81.1096 8.38286C80.9054 8.08766 80.3828 8.03476 80.3828 8.06446L80.3605 8.24919L80.0876 8.29467L80.0421 8.15822L79.9743 8.13593V8.02175C80.6325 7.77205 81.2238 8.31695 81.2238 8.31695L81.2461 9.22575C80.2695 9.3622 79.0655 10.1568 79.0655 10.1568L78.5884 9.33899C78.7481 8.68084 79.3607 8.31695 79.3607 8.31695L79.4517 8.40792L79.3375 8.54438L79.383 8.70312L79.111 8.93055L78.8836 8.81637C78.7861 8.98903 78.6914 9.15705 78.7249 9.33899L78.8836 9.67968C79.202 9.81613 79.0888 9.42996 79.0888 9.42996C78.9978 9.31578 78.8836 9.5655 78.8836 9.5655C78.6794 9.17933 78.9523 9.20161 78.9523 9.20161C78.84 9.09207 78.8855 8.91013 78.8855 8.91013ZM71.5037 17.2239C71.2085 17.9962 71.3673 18.995 71.3673 18.995H71.1853V17.7456C70.6627 17.6314 70.8901 17.4281 70.8901 17.4281C71.0944 17.1552 71.5037 17.2239 71.5037 17.2239ZM72.5026 19.5177C72.6167 19.6987 72.5935 19.9493 72.5935 19.9493C72.548 19.7683 72.3661 19.7896 72.3661 19.7896C72.2761 19.5177 72.5026 19.5177 72.5026 19.5177ZM72.9342 19.5177C73.0484 19.4508 73.0484 19.2912 73.0484 19.2912C73.299 19.4035 73.1394 19.7683 73.1394 19.7683C73.0939 19.6086 72.9342 19.5177 72.9342 19.5177ZM72.639 18.633C73.0029 18.5643 73.0939 18.905 73.0939 18.905C73.2526 19.0646 73.2526 18.8363 73.2526 18.8363C73.0475 18.1995 72.639 18.633 72.639 18.633ZM73.1384 19.0647C73.2517 19.1101 73.2972 19.0192 73.2972 19.0192C73.3881 19.2225 73.274 19.3821 73.274 19.3821C73.2517 19.2011 73.1384 19.2011 73.1384 19.2011V19.0647Z" fill="white"/>
<path fill-rule="evenodd" clip-rule="evenodd" d="M73.4114 18.7908C73.184 17.9517 72.5936 18.5188 72.5936 18.5188C72.4349 17.9971 72.6623 17.5868 72.6623 17.5868C73.003 17.6323 73.4569 17.5868 73.4569 17.5868C73.5702 17.5868 73.5247 17.6555 73.5247 17.6555C73.6157 18.063 73.3659 18.063 73.3659 18.063C73.5479 18.2227 73.5934 18.154 73.5934 18.154C73.9573 18.1995 74.2747 17.4745 74.2747 17.4745C74.6154 17.4513 75.0248 17.7465 75.0248 17.7465C75.2522 17.9517 75.0248 18.0185 75.0248 18.0185C74.7064 17.9517 74.1383 18.064 74.1383 18.064C74.0705 18.1095 74.0928 18.2468 74.0928 18.2468C74.1383 18.3824 74.1615 18.8363 74.1615 18.8363C73.8663 18.7685 73.4114 18.7908 73.4114 18.7908ZM74.9106 16.2919C75.0016 15.9512 75.6829 15.5882 75.6829 15.5882C76.0236 15.4527 76.523 15.3376 76.523 15.3376C77.1144 15.3608 77.5228 15.9958 77.5228 15.9958L77.2954 16.1768L77.3864 16.2455C77.5915 16.0403 77.818 16.2687 77.818 16.2687C78.0222 16.381 78.5216 16.5639 78.5216 16.5639C78.2942 16.9027 77.5906 16.7672 77.5906 16.7672C77.6128 17.132 77.2044 17.3798 77.2044 17.3798C77.4773 17.6082 78.5216 17.8133 78.5216 17.8133C78.9078 17.2675 79.3163 17.6537 79.3163 17.6537C79.4072 17.7205 79.5214 17.8347 79.5214 17.8347C79.294 17.9489 79.3617 18.2441 79.3617 18.2441C78.9078 18.335 77.6361 18.335 77.6361 18.335C76.3866 18.1522 75.7507 17.8347 75.7507 17.8347C75.6375 17.766 75.7062 17.675 75.7062 17.675L75.6829 17.5395C75.6607 17.3798 75.7971 17.404 75.7971 17.404C76.2511 17.3353 76.6372 16.8368 76.6372 16.8368C76.7514 16.5648 76.5008 16.6103 76.5008 16.6103C75.7284 16.5657 74.9106 16.2919 74.9106 16.2919Z" fill="white"/>
<path fill-rule="evenodd" clip-rule="evenodd" d="M78.9541 17.4058C79.2493 16.9983 79.6578 17.2703 79.6578 17.2703C79.7487 17.3371 79.8397 17.5423 79.8397 17.5423C79.6578 17.5423 79.6123 17.7019 79.6123 17.7019C79.4535 17.3817 78.9541 17.4058 78.9541 17.4058ZM79.499 18.1995C79.4535 18.0185 79.6132 17.9507 79.6132 17.9507C79.7042 18.0175 79.7942 18.1772 79.7942 18.1772C79.7033 18.1995 79.499 18.1995 79.499 18.1995ZM79.6578 17.8152C79.862 17.9061 79.8852 18.154 79.8852 18.154L80.0439 18.1326C80.0894 17.792 79.9075 17.6109 79.9075 17.6109C79.7033 17.6323 79.6578 17.8152 79.6578 17.8152ZM79.8852 17.2006C79.9994 17.2693 79.9762 17.4958 79.9762 17.4958C80.1349 17.61 80.1804 17.8365 80.1804 17.8365C80.2946 17.7678 80.4756 17.791 80.4756 17.791C80.3846 17.1552 79.8852 17.2006 79.8852 17.2006ZM80.2259 17.9275L80.2482 18.1085L80.4979 18.0872C80.5202 17.9516 80.4524 17.8607 80.4524 17.8607C80.3169 17.8365 80.2259 17.9275 80.2259 17.9275ZM81.816 13.0215C81.8615 13.2025 81.816 13.5218 81.816 13.5218C81.7473 13.6574 81.5663 13.9294 81.5663 13.9294L81.8838 14.2487L82.6571 14.27C82.748 13.9981 83.201 13.5432 83.201 13.5432C83.4962 12.1805 84.2454 11.6124 84.2454 11.6124V11.4991C84.0644 11.4536 84.0421 11.2717 84.0421 11.2717C84.0406 11.201 84.0563 11.1311 84.0878 11.0679C84.1194 11.0047 84.1658 10.95 84.2231 10.9087C84.3141 10.9997 84.3141 10.84 84.3141 10.84C84.2686 10.7945 84.1999 10.7945 84.1999 10.7945L84.1544 10.8855L83.9511 11.203C83.8601 11.4982 83.2911 12.3615 83.2911 12.3615C83.1101 12.5434 82.5188 13.2016 82.5188 13.2016L82.4278 13.1561C82.2254 13.1812 81.816 13.0215 81.816 13.0215ZM83.1342 16.86L83.292 16.588L83.4062 16.6112C83.4517 16.9287 83.6568 17.1552 83.6568 17.1552L83.6336 17.61C83.5668 17.4504 83.4071 17.4504 83.4071 17.4504C83.5204 17.0428 83.1342 16.86 83.1342 16.86ZM82.1103 18.9718H81.9516L81.5654 19.4035C81.5422 19.6541 81.2247 19.7683 81.2247 19.7683C81.8383 19.7228 81.9293 19.4963 81.9293 19.4963C81.8977 19.6144 81.8519 19.7281 81.7928 19.8351C82.1781 19.6318 82.088 19.5418 82.088 19.5418C82.1567 19.3134 82.1335 19.2911 82.1335 19.2911C82.1567 19.177 82.1781 19.1556 82.1781 19.1556C82.2254 18.9718 82.1103 18.9718 82.1103 18.9718ZM82.3832 19.1547C82.6339 19.2002 82.7694 19.176 82.7694 19.176C83.0887 19.4712 82.748 19.9029 82.748 19.9029C82.6571 19.6977 82.7026 19.6077 82.7026 19.6077C82.748 19.4954 82.6571 19.3571 82.6571 19.3571C82.5197 19.5399 82.6097 19.8574 82.6097 19.8574C82.3377 19.7432 82.2709 19.4712 82.2709 19.4712C82.2709 19.2911 82.3832 19.1547 82.3832 19.1547ZM84.9267 16.5193L85.1319 16.3615C85.2228 16.588 85.065 16.8145 85.065 16.8145C85.0373 16.7085 84.9905 16.6084 84.9267 16.5193ZM84.6093 16.8145C84.6779 16.7476 84.7689 16.6112 84.7689 16.6112C84.9044 16.8145 84.8358 17.0883 84.8358 17.0883C84.7234 17.0196 84.7689 17.0651 84.7689 17.0651L84.6093 16.8145Z" fill="white"/>
<path fill-rule="evenodd" clip-rule="evenodd" d="M84.5406 14.5207V15.293C85.2006 15.2243 85.1319 15.7247 85.1319 15.7247C85.4039 15.8157 85.2229 16.2919 85.2229 16.2919C85.3371 16.5657 85.2015 16.8832 85.2015 16.8832C85.5422 17.6769 86.5633 17.973 86.5633 17.973L86.5179 14.4975L84.5406 14.5207ZM84.4051 13.157L84.4283 13.6119C84.0635 14.3842 84.2686 15.4286 84.2686 15.4286C84.2297 15.4348 84.1929 15.4504 84.1614 15.474C84.1299 15.4976 84.1045 15.5285 84.0876 15.5641C83.837 13.9294 84.4051 13.157 84.4051 13.157ZM85.8588 17.7465L85.8356 19.4508L86.5624 20.0403L87.1769 19.4963V17.9516L86.9263 17.973V19.2912L86.5624 19.6987L86.154 19.4035V17.9516L85.8588 17.7465Z" fill="white"/>
<path fill-rule="evenodd" clip-rule="evenodd" d="M86.5401 18.5402C86.607 18.5402 86.6543 18.4947 86.6543 18.4046C86.6543 18.3146 86.607 18.2468 86.5401 18.2468C86.4947 18.2468 86.4492 18.3137 86.4492 18.4046C86.4492 18.4956 86.4956 18.5402 86.5401 18.5402ZM86.7453 18.905C86.7908 18.905 86.8363 18.8363 86.8363 18.7694C86.8363 18.6785 86.7908 18.6098 86.7453 18.6098C86.6766 18.6098 86.6311 18.6785 86.6311 18.7694C86.6311 18.8363 86.6766 18.905 86.7453 18.905ZM86.5624 19.177C86.6079 19.177 86.6552 19.1101 86.6552 19.0414C86.6552 18.9727 86.6079 18.9059 86.5624 18.9059C86.4956 18.9059 86.4501 18.9727 86.4501 19.0414C86.4501 19.1101 86.4956 19.177 86.5624 19.177ZM86.3814 18.8808C86.4501 18.8808 86.4956 18.814 86.4956 18.723C86.4956 18.6543 86.4501 18.5856 86.3814 18.5856C86.3146 18.5856 86.2691 18.6543 86.2691 18.723C86.2691 18.814 86.3136 18.8808 86.3814 18.8808ZM84.4283 17.0428C84.4051 16.86 84.4951 16.8377 84.4951 16.8377C84.5861 17.0642 84.769 17.2006 84.769 17.2006V17.1793C84.8358 17.3371 85.041 17.4968 85.041 17.4968C85.0642 17.6564 84.9054 17.6564 84.9054 17.6564C84.6093 17.4058 84.4283 17.0428 84.4283 17.0428ZM84.8813 17.1784C84.9955 17.0428 84.9723 16.9277 84.9723 16.9277C85.041 17.0419 85.0865 17.0419 85.0865 17.0419L85.1551 16.9964L85.2907 17.1997C85.131 17.2229 85.04 17.4049 85.04 17.4049C84.9054 17.3362 84.8813 17.1784 84.8813 17.1784ZM84.0421 17.3817L84.1999 17.61C84.1999 17.519 84.2454 17.4504 84.2454 17.4504L84.4283 17.2693L84.3373 17.1097L84.1545 17.3148C84.109 17.3362 84.0421 17.3817 84.0421 17.3817ZM83.7924 16.9741L83.9279 17.1552C83.9512 17.0642 83.9966 17.0428 83.9966 17.0428L84.2231 16.8377L84.0876 16.7467L83.7924 16.9741ZM83.2243 14.452V14.7026L83.2911 14.6803L83.6328 14.6571L83.2243 15.1333L83.4963 15.3153H83.8825V15.1333H83.4749L83.8825 14.6803V14.4752L83.8138 14.4975H83.2911L83.2243 14.452ZM83.2698 13.8848L83.2466 14.1113L83.2911 14.0658L83.8138 14.1345L83.8825 14.2255L83.9279 13.9535H83.837L83.3608 13.8848L83.2698 13.817V13.8848ZM83.6773 12.6585L83.837 12.7718L83.7228 12.8173C83.5418 12.976 83.656 13.067 83.656 13.067C83.7683 13.1357 83.7915 12.9992 83.7915 12.9992C83.9725 12.7495 84.109 12.885 84.109 12.885C84.3373 13.0438 84.1777 13.2944 84.1777 13.2944L84.109 13.3854L84.0876 13.4532L83.9066 13.3854L83.9976 13.3176C84.0885 13.2489 84.0644 13.1366 84.0644 13.1366C84.0189 12.9315 83.9066 13.1366 83.9066 13.1366C83.6328 13.4086 83.4972 13.1134 83.4972 13.1134C83.3821 12.9073 83.6773 12.6585 83.6773 12.6585ZM84.3373 11.9085V12.0904C84.0635 12.0217 84.0867 12.2946 84.0867 12.2946C84.1535 12.6121 84.3819 12.5666 84.3819 12.5666V12.7031C84.0625 12.7486 83.9502 12.4525 83.9502 12.4525C83.837 11.9317 84.3373 11.9085 84.3373 11.9085ZM84.5406 14.4065H86.5169V11.5L84.4506 11.4768L84.5406 14.4065ZM84.3828 8.61492C84.9066 8.15819 85.5399 7.84507 86.2208 7.70613V8.16006C85.5413 8.07001 84.3828 8.61492 84.3828 8.61492ZM86.8363 7.72934V8.13778C88.2436 8.09229 88.9036 8.70589 88.9036 8.70589C88.0616 7.68292 86.8363 7.72934 86.8363 7.72934ZM86.3359 7.70613V8.16099H86.7221V7.70613H86.3359ZM83.8138 8.91011C83.6782 8.27424 84.1545 8.52394 84.1545 8.52394L83.8138 8.91011ZM84.3141 8.41069C84.2686 7.75254 84.7003 8.1155 84.7003 8.1155L84.3141 8.41069ZM84.9268 7.97904C84.9054 7.32089 85.3362 7.70706 85.3362 7.70706L84.9268 7.97904ZM85.5181 7.66157C85.6091 6.79826 85.973 7.47962 85.973 7.47962L85.5181 7.66157ZM86.2217 7.22899H86.8363C86.9272 7.36545 86.7453 7.56967 86.7453 7.56967C86.5401 7.63836 86.3359 7.54739 86.3359 7.54739C86.0185 7.47962 86.2217 7.22899 86.2217 7.22899ZM86.245 6.20694H86.8363L86.6552 6.47986L86.7676 6.59404L86.9031 6.41116L86.9263 6.97927L86.6311 6.75278L86.7676 7.09346L86.245 7.07025L86.4715 6.79733L86.4046 6.72957L86.1763 6.93379L86.154 6.38889L86.3814 6.59404L86.4501 6.52534L86.245 6.20694ZM88.7885 8.22875L89.1291 8.54715C89.2442 7.84258 88.7885 8.22875 88.7885 8.22875ZM88.6074 8.0923L88.1981 7.86486C88.6743 7.38865 88.6074 8.0923 88.6074 8.0923ZM87.6086 7.52511L88.0161 7.70706C88.0161 7.00249 87.6086 7.52511 87.6086 7.52511ZM87.4489 7.5019C87.4035 7.1835 87.2224 7.1835 87.2224 7.1835C87.0173 7.13801 86.9941 7.47869 86.9941 7.47869L87.4489 7.5019ZM84.4283 10.9774C86.6079 10.5458 88.562 10.9774 88.562 10.9774C88.8339 11.0229 88.7216 11.2271 88.7216 11.2271C88.5165 11.2949 88.4264 11.2494 88.4264 11.2494C86.7453 10.9087 84.4961 11.3181 84.4961 11.3181C84.1554 11.3404 84.2241 11.1816 84.2241 11.1816C84.2928 10.9319 84.4283 10.9774 84.4283 10.9774ZM86.6311 11.5V14.4306H88.5165L88.5842 11.5H86.6311ZM88.5165 14.5207H86.6311L86.6543 17.9962C87.6986 17.8152 87.9938 17.1784 87.9938 17.1784C88.0393 16.859 88.5155 15.5427 88.5155 15.5427L88.5165 14.5207ZM87.3348 17.9061V18.2468C87.7441 18.5188 88.2436 18.6543 88.2436 18.6543C88.4487 18.5856 88.3577 18.4037 88.3577 18.4037C88.2915 18.35 88.2141 18.3116 88.1312 18.2914C87.6996 18.2468 87.3348 17.9061 87.3348 17.9061ZM88.0403 17.2461L88.1526 17.3603L87.7441 17.9516L87.6754 17.792L88.0403 17.2461ZM88.2426 17.429L87.8583 17.973C88.4478 18.3591 88.7885 17.4513 88.7885 17.4513C88.4478 17.5413 88.2426 17.429 88.2426 17.429ZM88.6306 12.976V13.5218C88.8339 13.8848 88.8794 14.6571 88.8794 14.6571L89.0623 14.3397C89.0391 13.5432 88.6306 12.976 88.6306 12.976ZM87.3125 19.267V19.5176C87.4935 19.6773 87.9706 19.7896 87.9706 19.7896C88.0848 19.7441 87.9706 19.5863 87.9706 19.5863C87.6996 19.5863 87.3125 19.267 87.3125 19.267Z" fill="white"/>
<path fill-rule="evenodd" clip-rule="evenodd" d="M88.0616 19.177L88.1758 18.7695C88.5619 18.7463 88.4264 18.3146 88.4264 18.3146C88.7439 18.2236 89.1059 17.6333 89.1059 17.6333L89.1987 17.8616L89.3343 18.1336C89.4011 18.2691 89.4466 18.3388 89.4252 18.3388L89.2201 18.5198V18.4056L88.8339 18.7463L88.9694 17.9971L88.6065 18.8363C88.4023 19.0647 88.0616 19.177 88.0616 19.177ZM88.1303 19.3821C88.4477 19.8593 89.4939 19.8593 89.4939 19.8593C89.3798 19.5873 89.0846 19.4731 89.0846 19.4731C89.5394 19.2921 89.9479 19.6996 89.9479 19.6996C90.1985 19.928 90.4696 19.928 90.4696 19.928C90.4052 19.835 90.329 19.7508 90.2431 19.6773C90.3786 19.7442 90.515 19.6987 90.515 19.6987C90.3572 19.4267 89.9024 19.177 89.9024 19.177C90.3795 18.9264 90.7889 19.4963 90.7889 19.4963C90.9922 19.7897 91.1751 19.8593 91.1751 19.8593L91.0377 19.4044C91.1751 19.8138 91.719 19.928 91.719 19.928C91.7877 19.8593 91.719 19.7228 91.719 19.7228C91.5612 19.7228 91.4238 19.4963 91.4238 19.4963L91.4025 19.0415C90.9021 18.9728 90.9021 18.7008 90.9021 18.7008C90.9708 18.2933 91.3338 18.2478 91.3338 18.2478L91.2883 17.7242C91.5835 17.4522 92.1516 17.6119 92.1516 17.6119C92.1061 17.2926 91.8564 17.3835 91.8564 17.3835C91.8564 17.1348 91.5631 17.1116 91.5631 17.1116V17.1803L90.7434 17.8171C90.8576 18.452 90.5624 18.6562 90.5624 18.6562C89.9952 19.021 89.5868 18.5207 89.5868 18.5207L89.2674 18.7258C89.5626 18.7472 89.7678 19.021 89.7678 19.021L89.7223 19.0665C89.5758 18.9474 89.4051 18.8618 89.2219 18.8159L88.9499 18.9282L88.8144 19.0424L88.1303 19.3821Z" fill="white"/>
<path fill-rule="evenodd" clip-rule="evenodd" d="M89.9469 17.0884C90.1975 16.7235 90.3099 16.1331 90.3099 16.1331L90.4027 16.2473L90.2672 16.679L90.3581 16.77L90.5159 16.407L90.6301 16.5425L90.4491 16.8377L90.5846 16.95L90.7656 16.7013L90.8798 16.7922L90.6292 17.0429L90.7415 17.2007L90.9467 16.8832L91.1063 16.9974L90.8343 17.2694L90.9467 17.3603L91.2205 17.1338L91.3115 17.2007L90.6515 17.7465C90.424 17.2462 89.9469 17.0884 89.9469 17.0884ZM92.2862 17.6323C92.8552 17.4968 92.379 17.2007 92.379 17.2007C91.8787 17.0197 91.81 17.1097 91.81 17.1097C91.9928 17.1784 91.9696 17.2907 91.9696 17.2907C92.2193 17.3149 92.2862 17.6323 92.2862 17.6323ZM92.3094 18.1782L92.5145 17.6778C92.1952 17.792 91.9928 17.7233 91.9928 17.7233C91.6522 17.6778 91.5138 17.7688 91.5138 17.7688C91.3105 17.883 91.4702 17.9062 91.4702 17.9062C91.719 18.154 92.3094 18.1782 92.3094 18.1782ZM92.9675 18.1085L93.0817 18.2469L93.6276 18.064L93.3082 18.2923L93.8995 18.3378L93.6276 17.9275L92.9675 18.1085ZM91.3328 8.07005C91.2873 7.66161 91.0608 7.47966 91.0608 7.47966C90.8102 7.32092 90.7889 7.45738 90.7889 7.45738C90.7889 7.6616 90.9467 7.72937 90.9467 7.72937L91.3328 8.07005ZM91.8545 8.38753C91.809 8.13782 91.7877 8.11554 91.7877 8.11554C91.6967 7.9568 91.628 7.86583 91.628 7.86583L91.3328 7.6616C91.4238 7.84355 91.447 8.07005 91.447 8.07005L91.8545 8.38753ZM91.8777 8.02456C92.0133 8.25199 91.9919 8.43301 91.9919 8.43301L92.3549 8.7969C92.3549 8.43301 92.1739 8.20651 92.1739 8.20651L91.8787 7.97908L91.8777 8.02456ZM91.175 10.5458C91.0154 10.6368 90.9012 10.5913 90.9012 10.5913C90.9012 10.8187 91.3106 10.8187 91.3106 10.8187C91.4702 10.8187 91.6057 10.66 91.6057 10.66V10.569C91.4702 10.66 91.3106 10.6832 91.3106 10.6832L91.175 10.5458ZM91.6735 12.1127L91.719 11.954C92.1506 11.8398 91.8332 11.5224 91.8332 11.5224C91.9928 11.4546 92.0383 11.5001 92.0383 11.5001C92.2416 11.3859 92.3103 11.6356 92.3103 11.6356C92.47 11.5001 92.5823 11.5901 92.5823 11.5901C92.2416 11.9085 92.651 12.0218 92.651 12.0218C92.8562 12.0218 92.9016 11.8175 92.9016 11.8175C92.8107 11.7256 92.7875 11.6588 92.7875 11.6588C92.8546 11.6845 92.916 11.7229 92.9685 11.7721C92.9471 11.6356 93.0827 11.6356 93.0827 11.6356C93.1495 11.7498 93.1281 11.8398 93.1281 11.8398C93.1968 11.7721 93.3333 11.8398 93.3333 11.8398C93.1281 12.0673 93.4001 12.2715 93.4001 12.2715C93.7195 12.4525 93.674 11.9308 93.674 11.9308C93.9005 11.9308 93.8773 12.135 93.8773 12.135L94.0146 12.0218C94.0601 12.1582 94.0601 12.2492 94.0601 12.2492C94.1511 12.135 94.2866 12.2269 94.2866 12.2269C93.9218 12.4534 94.1725 12.6586 94.1725 12.6586C94.2866 12.7495 94.3776 12.6809 94.3776 12.6809L94.3563 12.5221L94.6496 12.5676L94.3563 12.9083C92.8097 12.0218 91.6735 12.1127 91.6735 12.1127ZM92.379 8.31976L92.6723 8.5017C92.651 8.68365 92.4913 8.86467 92.4913 8.86467C92.5359 8.68365 92.379 8.31976 92.379 8.31976ZM93.7854 8.5017C94.3999 8.34297 94.8083 9.15986 94.8083 9.15986L94.3553 8.97884C94.1715 8.77369 93.7854 8.5017 93.7854 8.5017ZM94.3999 9.11437C94.5354 9.29632 94.6032 9.59151 94.6032 9.59151C94.7628 9.77346 95.2177 10.0464 95.2177 10.0464C95.1035 9.29632 94.3999 9.11437 94.3999 9.11437ZM94.6942 9.86443C95.4897 10.1596 95.24 10.9997 95.24 10.9997C95.1258 10.7045 94.9225 10.6136 94.9225 10.6136C94.6942 10.3871 94.6942 9.86443 94.6942 9.86443ZM94.8315 10.75C94.8529 10.932 94.7861 11.2494 94.7861 11.2494C94.8984 11.4314 94.9894 11.7943 94.9894 11.7943C95.0803 11.7034 95.1945 11.1585 95.1945 11.1585C95.1258 10.9097 94.8315 10.75 94.8315 10.75ZM94.7406 11.4769C94.6932 11.7266 94.4212 12.1805 94.4212 12.1805L94.5354 12.317L94.6709 12.4079C95.058 11.9085 94.7406 11.4769 94.7406 11.4769ZM99.4191 18.8595L99.2158 18.0872C99.0562 17.8366 98.8065 17.9962 98.8065 17.9962C98.6013 18.154 98.3516 18.0631 98.3516 18.0631C98.0796 18.0176 98.3061 17.8366 98.3061 17.8366C98.6709 17.6101 99.033 17.4959 99.033 17.4959C99.3068 17.6101 99.8053 17.5868 99.8053 17.5868C100.237 17.52 100.146 17.882 100.146 17.882C100.169 18.2227 100.055 18.814 100.055 18.814C99.783 18.814 99.4191 18.8595 99.4191 18.8595ZM100.146 19.0192L100.26 19.1315L99.9195 19.7442L99.7598 19.6532C99.9863 19.4722 100.146 19.0192 100.146 19.0192ZM100.35 19.177L100.078 19.7683C100.577 19.8593 100.942 19.5177 100.942 19.5177L100.873 19.1547C100.622 19.267 100.35 19.177 100.35 19.177ZM101.373 18.9264C101.485 18.9496 101.714 19.0405 101.714 19.0405C101.805 18.633 101.6 18.1317 101.6 18.1317C101.986 18.2673 101.986 18.1085 101.986 18.1085C102.1 17.7911 101.714 17.701 101.714 17.701C101.054 17.4959 100.827 17.5414 100.827 17.5414C100.873 17.7224 100.851 17.8366 100.851 17.8366C100.872 17.882 100.872 18.0631 100.872 18.0631C101.509 18.2923 101.373 18.9264 101.373 18.9264ZM88.6529 11.8862V12.0673L88.8794 11.9085L88.6529 12.4311L88.6306 12.7495L88.9935 11.9763L88.8794 11.7721L88.6529 11.8862ZM88.7216 12.8628H88.8125L89.2887 12.4989L89.3342 12.4079L89.4466 12.6586H89.3797L88.9481 12.9993L89.0149 13.1812L89.13 13.2944L88.9703 13.3622L88.7216 12.8628ZM89.13 13.8626L89.1987 14.1345L89.311 14.0659L89.4939 13.999L89.6517 14.1113H89.8782L89.6062 13.9294L89.8114 13.7029L89.7204 13.4309L89.6749 13.5432L89.4707 13.8171L89.1987 13.8848L89.13 13.8626ZM89.4939 15.475C89.3797 15.4982 89.4252 15.566 89.4252 15.566C89.6517 15.8612 89.7882 15.6115 89.7882 15.6115C89.8569 15.4759 89.8336 15.3849 89.8336 15.3849L89.7668 15.3636C89.7668 15.6356 89.6313 15.5669 89.6313 15.5669C89.5394 15.565 89.4939 15.475 89.4939 15.475ZM89.2442 15.9057L89.1987 16.2018L89.2887 16.3615L89.3342 16.0877L89.5607 16.2018L89.4466 16.4283L89.3797 16.4516L89.5394 16.5425L89.6972 16.1777L89.7659 16.0877H89.6972L89.2442 15.8612V15.9057ZM84.7689 18.4047C84.7234 18.5857 84.5638 18.5643 84.5638 18.5643L84.3131 18.2691C84.1535 18.0185 84.2918 17.9517 84.2918 17.9517L84.6093 17.4968C84.6791 17.5401 84.7347 17.6031 84.7689 17.6778L84.5406 17.973C84.4737 18.1327 84.586 18.1782 84.586 18.1782L84.7689 18.4047Z" fill="white"/>
<path fill-rule="evenodd" clip-rule="evenodd" d="M85.0865 17.4504C85.1774 17.8365 84.7913 17.7456 84.7913 17.7456C84.6558 18.0176 84.86 18.0176 84.86 18.0176C85.1774 18.0408 85.2916 17.7224 85.2916 17.7224C85.2916 17.52 85.0865 17.4504 85.0865 17.4504ZM91.8091 11.1594L91.5371 10.9097C91.5371 10.9097 91.7636 10.7277 91.7182 10.5012C91.7182 10.5012 91.8778 10.4789 91.5603 10.4789L91.4462 10.5467C91.4462 10.5467 91.332 10.5012 91.3106 10.4325L91.2652 10.1605L91.4703 9.91084L91.6513 9.93312C91.7841 9.7521 92.1285 9.44298 92.4218 9.19234L92.5146 9.29724C92.4004 9.54694 92.536 9.61471 92.536 9.61471C92.717 9.72889 92.7866 9.50146 92.7866 9.50146C92.9676 9.59243 92.9008 9.47918 92.9008 9.47918C92.7179 9.43833 92.5146 9.19699 92.4766 9.14779C92.7105 8.94913 92.9008 8.79782 92.9008 8.79782C93.0131 8.54811 93.196 8.43393 93.196 8.43393C93.0818 8.2984 92.9908 7.93451 92.9908 7.93451C93.558 7.93451 93.649 8.5249 93.649 8.5249C95.3988 9.91083 94.309 12.0914 94.309 12.0914C93.7854 11.6597 92.6047 11.3868 92.6047 11.3868C92.7643 11.0693 93.1486 10.8642 93.1486 10.8642C93.8996 10.8874 93.7855 9.9786 93.7855 9.9786C93.6276 9.6602 93.6731 10.1373 93.6731 10.1373C93.3538 11.1817 92.536 10.2515 92.536 10.2515C92.445 10.1828 92.536 10.4103 92.536 10.4103C92.5815 10.5235 92.6269 10.5012 92.6269 10.5012L92.6956 10.569L92.1285 10.7964C92.0375 10.9329 91.8778 11.1603 91.8778 11.1603L91.8091 11.1594ZM81.248 9.365C80.2947 9.45597 79.1362 10.2961 79.1362 10.2961C78.9997 10.387 78.9774 10.3638 78.9774 10.3638C78.75 10.7723 79.2271 10.9542 79.2271 10.9542C79.1619 11.3276 79.2261 11.7121 79.4091 12.044C79.6133 12.2947 79.6588 12.9306 79.6588 12.9306C79.8175 12.8164 79.863 12.5667 79.863 12.5667C80.045 13.3381 80.6353 13.4977 80.6353 13.4977C80.7119 13.5146 80.7839 13.5475 80.8467 13.5944C80.9094 13.6413 80.9614 13.7011 80.9992 13.7697C81.067 13.5432 81.0447 13.3167 81.0447 13.3167C81.1125 13.6119 81.3854 13.7697 81.3854 13.7697C81.4309 13.4977 81.5219 13.248 81.5219 13.248C81.7261 12.8173 81.5673 12.3856 81.5673 12.3856C81.6583 12.5444 81.8625 12.5899 81.8625 12.5899C81.7261 12.1814 81.8625 11.8398 81.8625 11.8398C81.9312 11.4314 81.7716 11.1585 81.7716 11.1585L81.7279 10.9941C81.6295 11.2801 81.6797 11.7266 81.6797 11.7266C81.5664 11.7043 81.4522 11.6588 81.4522 11.6588C81.5209 12.0672 81.248 12.6121 81.248 12.6121C81.0893 12.8619 81.0661 13.0438 81.0661 13.0438C80.8618 12.7718 80.226 12.5899 80.226 12.5899C80.1236 12.4619 80.0326 12.3252 79.954 12.1814C79.863 12.3402 79.772 12.2956 79.772 12.2956C79.7043 12.0682 79.5001 11.7953 79.5001 11.7953C79.3413 11.5233 79.3413 11.2504 79.3413 11.2504C79.5465 11.6365 79.6142 11.7275 79.6142 11.7275C79.773 11.8194 79.773 12.1359 79.773 12.1359C79.9094 12.0682 79.9317 11.9094 79.9317 11.9094C80.2501 12.4311 80.6818 12.523 80.6818 12.523C80.8637 12.614 81.0224 12.7727 81.0224 12.7727C81.0447 12.4089 81.1812 12.251 81.1812 12.251C81.4532 11.8417 81.2944 11.3423 81.2944 11.3423C81.3236 11.4064 81.3677 11.4625 81.4231 11.506C81.4786 11.5494 81.5436 11.5789 81.6128 11.592C81.5673 11.3877 81.5906 11.2058 81.5906 11.2058C81.6277 11.0591 81.6444 10.8521 81.6518 10.6934L81.5906 10.4557C81.4541 10.1605 81.4318 9.95632 81.4318 9.95632C81.6565 9.54602 81.248 9.365 81.248 9.365ZM80.3169 11.3859C80.498 11.6356 80.7486 11.7266 80.7486 11.7266C80.8841 11.4314 80.8396 11.2049 80.8396 11.2049C80.6353 11.2271 80.5444 11.1594 80.5444 11.1594C80.4757 11.4091 80.3169 11.3859 80.3169 11.3859ZM79.4304 10.387C79.7488 10.478 79.8621 10.3416 79.8621 10.3416C80.2028 10.2051 80.2482 10.569 80.2482 10.569C80.2482 10.7277 80.3169 10.841 80.3169 10.841C80.4144 10.8512 80.588 10.8196 80.6576 10.75C80.7486 10.6358 80.6121 10.5226 80.6121 10.5226C80.5667 10.3638 80.5212 10.2729 80.5212 10.2729C80.5212 9.90898 80.7718 9.93218 80.7718 9.93218C80.9305 9.95446 81.0438 9.79573 81.0438 9.79573C81.056 9.88519 81.0381 9.97617 80.9929 10.0543C80.9477 10.1325 80.8777 10.1934 80.7941 10.2274C80.6353 10.3416 80.6799 10.478 80.6799 10.478C80.8386 10.75 80.7022 10.7732 80.7022 10.7732C80.6867 10.8104 80.6627 10.8434 80.632 10.8696C80.6014 10.8957 80.565 10.9142 80.5258 10.9236C80.5973 11.113 80.7709 11.0916 80.7709 11.0916C81.0206 10.9561 81.0206 10.6832 81.0206 10.6832C81.1338 11.0006 81.0206 11.0916 81.0206 11.0916C81.1338 11.2958 80.9519 11.3868 80.9519 11.3868C80.9519 11.773 80.7477 11.9549 80.7477 11.9549C79.9753 11.501 79.9531 10.9784 79.9531 10.9784C80.2028 11.41 80.4525 11.2058 80.4525 11.2058C80.5017 11.1557 80.4915 11.0109 80.4822 10.9347C80.3736 10.9542 80.2705 10.9338 80.2705 10.9338C80.1341 10.7519 80.1573 10.6163 80.1573 10.6163C80.0431 10.3657 79.9753 10.5708 79.9753 10.5708C79.5669 10.8178 79.4304 10.387 79.4304 10.387ZM74.1838 18.1995C74.8196 18.5857 77.1598 18.5857 77.1598 18.5857C79.4081 18.6089 80.6353 18.2923 80.6353 18.2923C80.9073 18.2923 81.3622 18.0872 81.3622 18.0872C81.4532 18.064 81.4067 18.2468 81.4067 18.2468C81.2712 18.7685 81.3845 19.2912 81.3845 19.2912C81.3845 19.6541 80.9983 19.6319 80.9983 19.6319C77.7047 20.0849 75.0703 19.8583 75.0703 19.8583C74.2979 19.7228 74.2747 19.3125 74.2747 19.3125C74.4567 18.6776 74.207 18.3137 74.207 18.3137C74.1151 18.2468 74.1838 18.1995 74.1838 18.1995ZM74.9106 19.5409L74.9793 19.4722V18.814L74.9338 18.6998C75.4332 18.6785 75.592 18.8809 75.592 18.8809C75.9326 19.4499 75.3413 19.5864 75.3413 19.5864C75.1964 19.6144 75.0464 19.5986 74.9106 19.5409ZM76.0459 18.7908L76.3866 18.814C76.2956 18.8595 76.3188 18.995 76.3188 18.995L76.2965 19.6077L76.3875 19.7432L76.0236 19.7219C76.1146 19.6532 76.1146 19.6077 76.1146 19.6077V18.9496C76.1146 18.8595 76.0459 18.7908 76.0459 18.7908ZM75.2058 18.814L75.1835 19.4508C75.4332 19.4722 75.4787 19.268 75.4787 19.268C75.5242 19.1556 75.4332 18.996 75.4332 18.996C75.3423 18.814 75.2058 18.814 75.2058 18.814ZM76.7505 18.8595H77.4086L77.4309 19.0192C77.3399 18.9718 77.2267 18.9718 77.2267 18.9718H77.0902V19.2225H77.1589L77.3176 19.177L77.2954 19.3821L77.1821 19.3589H77.0911V19.6328H77.2499C77.3409 19.6328 77.4086 19.5641 77.4086 19.5641V19.7451L76.9092 19.7238H76.7727C76.7505 19.7005 76.7727 19.7005 76.7727 19.7005C76.8182 19.7005 76.8637 19.6551 76.8637 19.6551V18.9514C76.8414 18.905 76.7505 18.8595 76.7505 18.8595ZM77.7725 18.8363L78.1132 18.8595C78.0921 18.8943 78.0767 18.9322 78.0677 18.9718V19.4267C78.09 19.6077 78.2264 19.5864 78.2264 19.5864C78.3852 19.5632 78.3629 19.358 78.3629 19.358V18.905L78.3174 18.8595H78.5671C78.5448 18.8809 78.5448 18.9264 78.5448 18.9264V19.4035C78.5216 19.6987 78.2042 19.7228 78.2042 19.7228C77.8635 19.6996 77.8635 19.3821 77.8635 19.3821V18.9273C77.8398 18.891 77.8088 18.86 77.7725 18.8363ZM79.4304 18.7453L79.9753 18.6998L80.0431 18.8595C79.9753 18.8363 79.8844 18.8363 79.8844 18.8363H79.7488V19.0647H79.8844C79.9066 19.0415 79.9531 19.0192 79.9531 19.0192L79.9753 19.2225C79.9298 19.177 79.8844 19.177 79.8844 19.177H79.7488V19.4276H79.9076C79.9531 19.4276 80.0217 19.3589 80.0217 19.3589V19.5186L79.4991 19.5873L79.5446 19.5418L79.5223 18.815C79.5214 18.7685 79.4304 18.7453 79.4304 18.7453ZM80.4079 18.6544L80.4302 18.8354C80.4757 18.7444 80.6344 18.7444 80.6344 18.7444L80.6567 19.4026L80.6112 19.4499L80.8832 19.4026L80.8377 19.3812L80.8154 18.7231C80.951 18.6776 81.0196 18.7444 81.0196 18.7444L80.9974 18.5634L80.9742 18.5847L80.4525 18.6321H80.407L80.4079 18.6544ZM81.7242 17.9275C81.5655 17.6323 81.6787 17.429 81.6787 17.429C81.8152 17.0197 82.2014 17.0642 82.2014 17.0642C82.4279 17.1997 82.4065 17.0187 82.4065 17.0187C82.633 16.7012 82.905 16.8832 82.905 16.8832C82.9796 16.9757 83.0839 17.0397 83.2002 17.0642C83.3599 17.2694 83.2689 17.3817 83.2689 17.3817C83.2567 17.4534 83.273 17.527 83.3144 17.5868C83.5195 17.6323 83.4954 17.8607 83.4954 17.8607C83.5409 18.1095 83.3812 18.5188 83.3812 18.5188C83.2457 18.633 83.0879 18.5402 83.0879 18.5402C82.9737 18.5634 83.0192 18.6089 83.0192 18.6089C83.1334 18.7899 83.0192 18.8809 83.0192 18.8809C82.8382 19.086 82.5875 19.0637 82.5875 19.0637C82.2246 19.0637 82.2014 18.8809 82.2014 18.8809C82.1559 18.7231 81.9517 18.7231 81.9517 18.7231C81.6565 18.6321 81.6333 18.3369 81.6333 18.3369C81.611 18.1772 81.7242 18.1085 81.7242 18.1085C81.8384 18.0417 81.7242 17.9275 81.7242 17.9275ZM82.3378 18.1327C82.4288 18.4733 82.2255 18.6098 82.2255 18.6098C82.0426 18.633 82.0203 18.4956 82.0203 18.4956C82.0203 18.3601 81.9062 18.3378 81.9062 18.3378C81.8384 18.064 81.9749 18.064 81.9749 18.064C82.2023 17.9962 82.3378 18.1327 82.3378 18.1327ZM82.7695 17.9962C82.815 18.2227 83.1343 18.4037 83.1343 18.4037C83.2921 18.4037 83.2253 18.1772 83.2253 18.1772C83.1343 18.063 83.1798 17.9962 83.1798 17.9962C83.4063 17.9507 83.2466 17.7456 83.2466 17.7456C82.815 17.6323 82.7695 17.9962 82.7695 17.9962ZM82.452 17.6323C82.452 17.2007 82.1782 17.2248 82.1782 17.2248C82.0426 17.2462 82.0426 17.3826 82.0426 17.3826C82.0881 17.611 81.9971 17.611 81.9971 17.611C81.7929 17.6565 81.9294 17.883 81.9294 17.883C81.9971 17.9739 82.0426 17.9516 82.0426 17.9516C82.2468 17.9516 82.4065 17.8375 82.4065 17.8375C82.5188 17.8152 82.452 17.6323 82.452 17.6323ZM82.7481 17.1552C82.815 17.2907 82.9291 17.2694 82.9291 17.2694C83.1798 17.2694 83.0201 17.52 83.0201 17.52C82.8846 17.701 82.7026 17.7233 82.7026 17.7233C82.452 17.43 82.4743 17.2703 82.4743 17.2703C82.4743 16.9055 82.7481 17.1552 82.7481 17.1552ZM82.5885 18.2468C82.9291 18.2923 82.9059 18.6544 82.9059 18.6544C82.815 18.814 82.7249 18.7453 82.7249 18.7453C82.6107 18.633 82.5439 18.724 82.5439 18.724C82.5439 18.9273 82.3842 18.7908 82.3842 18.7908C82.2923 18.3137 82.5885 18.2468 82.5885 18.2468Z" fill="white"/>
<path fill-rule="evenodd" clip-rule="evenodd" d="M82.905 19.1547C83.2457 19.0637 83.2457 18.7453 83.2457 18.7453C83.2731 18.7367 83.2994 18.7245 83.3237 18.7091C83.5725 18.8651 83.6319 19.0646 83.6319 19.0646C83.7228 19.1101 83.8602 19.3366 83.8602 19.3366C83.837 19.0414 83.7006 18.9718 83.7006 18.9718C83.6496 18.8286 83.5664 18.699 83.4574 18.5931C83.6319 18.3759 83.6319 18.0417 83.6319 18.0417C83.8825 17.9507 84.109 18.2682 84.109 18.2682C84.018 18.3137 83.928 18.2914 83.928 18.2914C84.2928 18.4492 84.2232 19.0182 84.2232 19.0182C84.0635 19.0182 83.9967 18.9495 83.9967 18.9495C84.2687 19.267 83.9967 19.8815 83.9967 19.8815C83.7228 19.7674 83.6774 19.4499 83.6774 19.4499C83.7228 19.6764 83.6319 19.7432 83.6319 19.7432C83.4054 19.6977 83.3144 19.4025 83.3144 19.4025C83.2912 19.6764 83.1547 19.5622 83.1547 19.5622C83.0879 19.5167 83.0879 19.357 83.0879 19.357C82.9746 19.3366 82.905 19.1547 82.905 19.1547ZM85.7447 18.905C85.6508 18.8837 85.5592 18.8539 85.4708 18.8159C85.4142 18.97 85.2638 19.345 85.0865 19.5409C85.0865 19.5409 85.2879 19.1361 85.4058 18.7871C85.2074 18.6945 85.0235 18.5734 84.86 18.4278C84.8368 18.7685 84.4738 18.5856 84.4738 18.5856C84.2928 18.9263 84.6316 19.0192 84.6316 19.0192C84.9055 18.9959 85.041 18.8363 85.041 18.8363C85.3585 18.7694 85.132 19.0192 85.132 19.0192C85.0178 19.1315 84.769 19.177 84.769 19.177C84.4283 19.2911 84.6094 19.5631 84.6094 19.5631C84.7904 19.8138 84.9723 19.7228 84.9723 19.7228C85.132 19.7441 85.132 19.8583 85.132 19.8583C85.2462 20.1303 85.4272 19.9725 85.4272 19.9725C85.6323 19.7441 85.5181 19.5176 85.5181 19.5176C85.404 19.2225 85.4727 19.1101 85.4727 19.1101C85.404 18.7008 85.5868 18.9959 85.5868 18.9959C85.6323 19.0646 85.6778 19.2466 85.6778 19.2466C85.7447 19.4044 85.7688 19.2921 85.7688 19.2921L85.7447 18.905ZM82.2023 16.95L82.3378 16.7012C82.3165 16.4274 82.0427 16.2696 82.0427 16.2696C81.9972 16.3605 82.0427 16.4729 82.0427 16.4729C81.9062 16.2696 81.4977 16.1322 81.4977 16.1322C81.4523 16.2464 81.4977 16.4729 81.4977 16.4729C81.2926 16.0867 80.8609 16.0653 80.8609 16.0653C80.8609 16.2464 80.9519 16.3605 80.9519 16.3605C80.7477 16.2009 80.3383 16.2464 80.3383 16.2464C80.407 16.6557 80.7477 16.9277 80.7477 16.9277L80.7022 17.0419C80.4525 16.859 80.3847 16.9964 80.3847 16.9964C80.3624 17.0178 80.3847 17.0633 80.3847 17.0633C80.5203 17.2898 81.0206 17.4949 81.0206 17.4949C80.8841 17.5404 80.8387 17.6546 80.8387 17.6546C81.0206 18.0175 81.5655 17.9953 81.5655 17.9953C81.4943 17.7477 81.4991 17.4844 81.5794 17.2396C81.5219 17.2034 81.2137 17.0076 81.1116 16.9045C81.1116 16.9045 81.0206 16.7922 80.8396 16.6325L80.5212 16.3819C80.5212 16.3819 80.7718 16.4729 80.9528 16.6103C80.9528 16.6103 81.3604 16.9565 81.6546 17.1087C81.8811 16.8906 82.2023 16.95 82.2023 16.95ZM91.4703 18.1326C91.6059 18.6998 91.514 19.4508 91.514 19.4508C94.0593 20.4264 98.4195 19.8351 98.4195 19.8351C99.1463 19.7442 99.1705 19.6318 99.1705 19.6318C99.4424 19.6086 99.397 19.2002 99.397 19.2002C99.2373 18.995 99.1463 18.1772 99.1463 18.1772C98.555 18.5179 95.2178 18.6089 95.2178 18.6089C92.5146 18.6785 91.4703 18.1326 91.4703 18.1326ZM91.7878 18.4733L92.0384 18.5188L92.174 19.0192L92.446 18.633L92.6725 18.6543L92.6511 18.723V19.4499L92.6966 19.5409L92.3791 19.4954L92.4246 19.4267V19.0405L92.1294 19.4267L91.9243 18.9495V19.3812L91.7432 19.2902L91.7646 19.2447L91.7878 18.5847V18.4733ZM92.9918 18.814C92.6056 19.177 92.9918 19.5863 92.9918 19.5863C93.2183 19.7896 93.5135 19.5863 93.5135 19.5863C93.8542 19.1092 93.4903 18.814 93.4903 18.814C93.1496 18.633 92.9918 18.814 92.9918 18.814ZM93.2415 18.8363C92.8553 19.0192 93.1273 19.4276 93.1273 19.4276C93.2183 19.6328 93.3538 19.4731 93.3538 19.4731C93.5367 19.2921 93.3993 18.9959 93.3993 18.9959C93.3538 18.7908 93.2415 18.8363 93.2415 18.8363ZM93.831 18.7908H94.0138L94.309 19.2002L94.2858 18.8808L94.2626 18.814L94.5578 18.8354L94.5123 18.904V19.6764L94.5355 19.7432H94.3759L94.0584 19.2661V19.5854L94.0797 19.6764L93.8532 19.6532L93.8746 19.5409L93.8978 18.8808L93.831 18.7908ZM95.2633 18.8363H95.5808C95.9215 18.8363 95.9902 19.2911 95.9902 19.2911C95.9902 19.7896 95.5112 19.7683 95.5112 19.7683L95.2624 19.7451L95.3533 19.6782L95.3301 18.9059L95.2633 18.8363ZM95.5353 18.9505V19.6773C95.8305 19.5631 95.7618 19.2225 95.7618 19.2225C95.695 18.9505 95.5353 18.9505 95.5353 18.9505ZM96.148 18.8363L96.2835 18.8149C96.4664 18.724 96.6929 18.7917 96.6929 18.7917C96.9194 19.0424 96.6697 19.2689 96.6697 19.2689L96.8748 19.5882C96.9127 19.5978 96.9453 19.6218 96.9658 19.655C96.8535 19.7005 96.7848 19.655 96.7848 19.655C96.5796 19.5195 96.5341 19.3376 96.5341 19.3376H96.4218V19.6782L96.4432 19.7451H96.2167L96.238 19.6782L96.2167 18.8827L96.148 18.8363ZM96.4218 19.2457V18.8808C96.5128 18.7899 96.5796 18.904 96.5796 18.904C96.6938 19.0851 96.5796 19.1992 96.5796 19.1992C96.5341 19.267 96.4218 19.2457 96.4218 19.2457ZM97.4206 18.6785C97.8523 18.6553 97.8523 19.2225 97.8523 19.2225C97.8068 19.6773 97.3974 19.6773 97.3974 19.6773C97.0113 19.6318 96.9899 19.1556 96.9899 19.1556C97.0567 18.633 97.4206 18.6785 97.4206 18.6785ZM97.4206 18.814C97.6471 18.8354 97.6258 19.177 97.6258 19.177C97.6471 19.4963 97.4206 19.5631 97.4206 19.5631C97.3065 19.5863 97.261 19.4276 97.261 19.4276C97.1254 18.9959 97.3065 18.8604 97.3065 18.8604C97.3306 18.814 97.4206 18.814 97.4206 18.814ZM97.9878 18.6543L98.3053 18.633L98.2598 18.724L98.283 19.5176L98.3285 19.5631L98.0565 19.5863L98.0779 19.5409L98.0565 18.723L97.9878 18.6543ZM98.5337 18.5856L98.555 18.814L98.6237 18.7453L98.7379 18.724V19.4508L98.7147 19.5176L98.9412 19.4722L98.9198 19.4035V18.6543H99.0776L99.0563 18.4733L99.0108 18.4947L98.6014 18.5856H98.5337ZM89.2443 17.5655C89.2499 17.623 89.2591 17.6778 89.2712 17.7288C89.2811 17.7227 89.2913 17.7171 89.3018 17.7121C89.3743 17.5107 89.3343 17.429 89.3343 17.429L89.4012 17.3817C89.4318 17.4596 89.4012 17.5989 89.378 17.6806C89.4394 17.6612 89.5042 17.6545 89.5683 17.6611C89.598 17.5555 89.6109 17.4458 89.6063 17.3362L89.2796 17.2963C89.2062 17.416 89.2443 17.5655 89.2443 17.5655ZM89.3 17.8319C89.3566 18.0064 89.4448 18.1401 89.5432 18.2431C89.6481 18.1633 89.6249 17.8569 89.6119 17.7428C89.5003 17.7307 89.3884 17.7627 89.3 17.8319ZM89.5943 18.2942C89.701 18.3916 89.8115 18.4575 89.9024 18.4993C89.9491 18.3821 89.9666 18.2553 89.9535 18.1299C89.8245 18.1299 89.6889 18.1735 89.6323 18.1911C89.6193 18.2394 89.6026 18.2737 89.5943 18.2942ZM89.9767 18.5299C90.0417 18.555 90.0835 18.5643 90.0835 18.5643C90.1633 18.5754 90.2283 18.5736 90.2849 18.5643L90.2682 18.3573C90.1958 18.3536 90.0686 18.4167 90.0073 18.452L89.9767 18.5299ZM90.3573 18.5457C90.4142 18.5248 90.4645 18.4891 90.5031 18.4423C90.5416 18.3955 90.5669 18.3392 90.5764 18.2793C90.5076 18.2536 90.4332 18.2472 90.361 18.2607L90.3573 18.5457ZM90.5838 18.1883C90.5764 17.8802 90.4771 17.6666 90.3425 17.5135C90.3592 17.571 90.4167 17.7873 90.3805 17.9228L90.4928 17.8811L90.5142 17.9498L90.3564 17.9693C90.3655 18.0434 90.3636 18.1185 90.3508 18.1921C90.4696 18.154 90.5476 18.1726 90.5838 18.1883ZM90.2849 17.4541C90.1995 17.3765 90.102 17.3135 89.9962 17.2675C90.0148 17.2944 90.0705 17.3965 90.063 17.5469C90.1276 17.4971 90.2041 17.4651 90.2849 17.4541ZM89.8644 17.2173C89.7591 17.1832 89.65 17.1626 89.5395 17.1561C89.4599 17.1615 89.3843 17.1928 89.3241 17.2452L89.6574 17.2684L89.8644 17.2173ZM89.6685 17.3473C89.6852 17.4346 89.7029 17.5144 89.6722 17.5924C89.843 17.5274 89.9535 17.5599 89.9953 17.5775C89.9993 17.4794 89.9761 17.3821 89.9284 17.2963L89.6685 17.3473ZM90.0816 17.6574C90.1119 17.7599 90.1074 17.8696 90.0686 17.9693C90.1939 17.9117 90.2719 17.9164 90.3137 17.9293C90.3309 17.8112 90.3145 17.6905 90.2663 17.5812C90.1973 17.5822 90.1312 17.6094 90.0816 17.6574ZM90.038 18.0639C90.0622 18.1668 90.0596 18.2742 90.0305 18.3759C90.1484 18.2487 90.2552 18.245 90.2821 18.245C90.3146 18.1995 90.3183 18.0528 90.3146 18.0147C90.2203 18.0156 90.1268 18.0322 90.038 18.0639ZM90.0036 17.6973C89.8897 17.6637 89.7676 17.6719 89.6592 17.7205C89.6787 17.8746 89.6722 18.0018 89.6537 18.0974C89.754 18.0447 89.8678 18.0233 89.9804 18.0361C90.0196 17.9275 90.0276 17.8102 90.0036 17.6973ZM84.3829 10.8177L83.9967 9.59148L84.2 9.04658L84.4283 9.93216L84.2232 9.84119C84.3829 10.5448 84.95 10.1819 84.95 10.1819C85.2007 9.90988 84.9714 9.81891 84.9714 9.81891C84.6781 9.65925 84.6307 9.84119 84.6307 9.84119C84.4274 9.06885 84.95 9.36405 84.95 9.36405C84.9268 8.8637 85.1311 8.81915 85.1311 8.81915C85.403 8.91012 85.403 9.34177 85.403 9.34177C85.6982 8.86463 85.882 9.36405 85.882 9.36405C85.9034 9.43274 85.8588 9.56827 85.8588 9.56827C85.4959 9.43274 85.4513 9.81891 85.4513 9.81891C85.404 10.0686 85.8588 10.1364 85.8588 10.1364C86.4047 9.97765 86.4047 9.38633 86.4047 9.38633C86.245 9.40954 85.973 9.65832 85.973 9.65832V8.63627C86.1085 8.88598 86.4502 9.02244 86.4502 9.02244C86.3815 8.56851 86.1308 8.3188 86.1308 8.3188L87.086 8.29652C86.7667 8.59172 86.7908 9.02337 86.7908 9.02337C87.0628 8.97881 87.1984 8.70589 87.1984 8.70589L87.2216 9.59148C87.0164 9.27401 86.8122 9.41046 86.8122 9.41046C86.7212 10.0909 87.3125 10.1141 87.3125 10.1141C87.72 10.1141 87.7442 9.77342 87.7442 9.77342C87.6532 9.36498 87.3794 9.59148 87.3794 9.59148C87.267 8.91012 87.7655 9.20531 87.7655 9.20531C87.5845 8.75138 87.9011 8.59171 87.9011 8.59171C88.2891 8.81914 88.1062 9.20531 88.1062 9.20531C88.6298 8.93332 88.5379 9.59148 88.5379 9.59148C88.0394 9.36405 88.1062 9.88668 88.1062 9.88668C88.3346 10.4316 88.7876 10.0222 88.7876 10.0222C88.8785 9.88667 88.9018 9.75022 88.9018 9.75022L88.6966 9.7957L88.9018 9.09206L89.0828 9.45595L89.2183 9.06979L89.3325 9.20531L88.6725 10.8632C86.6767 10.4093 84.3829 10.8177 84.3829 10.8177ZM87.7665 10.5003C87.6541 10.478 87.54 10.4316 87.5632 10.3861C87.5632 10.3183 87.6541 10.2951 87.7897 10.3183C87.902 10.3406 88.0162 10.3861 87.9948 10.4316C87.9948 10.5003 87.902 10.5225 87.7665 10.5003ZM85.313 10.5225C85.4272 10.5003 85.5181 10.4548 85.5181 10.387C85.5181 10.3415 85.404 10.3193 85.2917 10.3415C85.1561 10.3415 85.0651 10.4093 85.0651 10.4548C85.0651 10.5003 85.1775 10.5458 85.313 10.5225ZM86.5625 10.0686L86.8818 10.3415L86.5625 10.5458L86.2691 10.3415L86.5625 10.0686ZM90.8335 13.6342C90.8549 13.3167 91.0368 12.9537 91.0368 12.9537L90.7723 12.6697L90.6813 12.8331C90.7305 12.8795 90.7648 12.9472 90.7648 13.0215C90.7648 13.1245 90.6998 13.2155 90.6182 13.2536L90.5968 13.3501L90.8335 13.6342ZM90.6998 12.5926L90.038 11.8862C89.585 11.2271 89.2656 11.5455 89.2656 11.5455L88.9482 11.6597C89.1988 11.8184 89.3343 12.0914 89.3343 12.0914C89.6063 12.0459 89.6295 12.1823 89.6295 12.1823L90.3332 13.0336V13.0224C90.3332 12.886 90.4241 12.7727 90.5383 12.7727C90.5634 12.7727 90.5912 12.7783 90.6144 12.7894L90.6998 12.5926Z" fill="white"/>
<path fill-rule="evenodd" clip-rule="evenodd" d="M89.7656 12.4986C89.6061 12.3178 89.4939 12.1815 89.4253 12.2492C89.4253 12.2492 89.6302 12.635 89.7879 13.1107C89.9019 13.4511 89.9928 13.8369 89.9706 14.1995L90.3091 14.2226L90.3981 14.2338L90.3675 14.0594C90.2701 14.04 90.1968 13.9361 90.1968 13.8146C90.1968 13.6551 90.2877 13.541 90.4018 13.541C90.4074 13.541 90.4148 13.541 90.4203 13.5429L90.4621 13.3472C90.4055 13.2804 90.348 13.2081 90.2877 13.1339C90.1968 13.0198 90.0828 12.9058 89.9928 12.7926C89.9251 12.6804 89.8324 12.5895 89.7656 12.4986ZM90.4899 14.2449L90.8544 14.2922C90.8544 14.2922 90.7403 14.1095 90.8089 13.7692L90.5678 13.4798L90.5409 13.6032C90.5691 13.631 90.5914 13.6642 90.6063 13.7009C90.6213 13.7375 90.6287 13.7769 90.6281 13.8165C90.6276 13.8663 90.6126 13.915 90.5849 13.9565C90.5573 13.998 90.5181 14.0305 90.4723 14.0502L90.4899 14.2449Z" fill="white"/>
<path fill-rule="evenodd" clip-rule="evenodd" d="M88.1526 17.1552C88.3122 17.3817 88.7894 17.3148 88.7894 17.3148C88.8581 17.2693 88.8348 16.9974 88.8348 16.9974C88.7894 16.8377 88.8135 16.7467 88.8135 16.7467C88.9258 16.7681 88.949 16.9045 88.949 16.9045C88.949 16.95 88.8803 17.1784 88.8803 17.1784C89.3807 16.859 88.949 16.2464 88.949 16.2464C89.0632 15.6096 89.221 15.4527 89.221 15.4527C89.7427 14.9978 90.0166 15.1575 90.0166 15.1575C90.4696 15.1575 91.2205 15.4081 91.2205 15.4081C91.5139 15.4991 92.5601 15.6801 92.5601 15.6801C92.5725 15.6123 92.6041 15.5495 92.651 15.4991C92.9462 15.2939 93.1495 14.3174 93.1495 14.3174C93.1495 14.1596 93.2182 14.2264 93.2182 14.2264C93.2637 14.4074 93.2414 14.4771 93.2414 14.4771C93.2869 14.8177 93.0131 15.4304 93.0131 15.4304C93.5589 15.7479 94.4909 15.681 94.4909 15.681C95.149 15.681 95.6707 15.3404 95.6707 15.3404C96.2834 15.0684 97.0557 15.1352 97.0557 15.1352L97.0344 14.9997C96.4672 14.749 96.8534 14.4539 96.8534 14.4539L96.625 14.1364C96.0124 14.0909 94.1047 13.0921 94.1047 13.0921C92.4691 12.1833 91.6067 12.342 91.6067 12.342C90.9012 13.0921 91.0154 14.3415 91.0154 14.3415L91.4229 14.387C91.4016 13.5237 91.9233 13.0689 91.9233 13.0689C92.0829 13.0011 91.9687 13.183 91.9687 13.183C91.4016 14.0222 91.6281 14.6135 91.6281 14.6135C91.3774 14.4993 89.8782 14.4325 89.8782 14.4325C89.7562 14.3999 89.6287 14.393 89.5039 14.4123C89.3791 14.4317 89.2597 14.4768 89.1532 14.5448C88.8794 14.7732 88.7671 15.1361 88.7671 15.1361L88.4719 16.1591C88.1758 16.7922 88.1526 17.1552 88.1526 17.1552ZM94.4909 14.4975C94.3999 14.9746 94.1047 15.4982 94.1047 15.4982C94.1502 15.656 94.3312 15.4072 94.3312 15.4072C94.5364 15.0424 94.6032 14.542 94.6032 14.542C94.5577 14.1587 94.4909 14.4975 94.4909 14.4975ZM93.7399 14.18C93.6276 14.8836 93.2869 15.3385 93.2869 15.3385C93.2182 15.5195 93.4224 15.384 93.4224 15.384C93.7176 14.9746 93.8086 14.2255 93.8086 14.2255C93.7854 14.0203 93.7399 14.18 93.7399 14.18ZM94.1047 14.3852C94.0815 14.8623 93.6731 15.384 93.6731 15.384C93.5821 15.5437 93.7854 15.4527 93.7854 15.4527C94.1502 15.1334 94.217 14.361 94.217 14.361C94.1716 14.1113 94.1047 14.3852 94.1047 14.3852ZM96.6027 15.3153C96.7634 15.26 96.9354 15.2456 97.1031 15.2735L97.1523 15.5167C97.1018 15.543 97.0596 15.583 97.0308 15.6321C97.0019 15.6811 96.9874 15.7374 96.9889 15.7943C96.9889 15.9521 97.1012 16.0876 97.2395 16.0876H97.2609V16.4413C97.0165 16.5195 96.7659 16.5766 96.5118 16.6121C96.1256 16.7031 96.3976 16.9296 96.3976 16.9296C96.6027 17.1106 96.6482 17.2703 96.6482 17.2703C96.8292 17.4754 96.5341 17.6332 96.5341 17.6332C95.9214 17.7474 95.2391 18.3601 95.2391 18.3601C94.762 18.4056 94.0592 18.3387 94.0592 18.3387C93.8764 18.2013 93.7399 17.8839 93.7399 17.8839C93.9905 17.6574 94.217 17.9294 94.217 17.9294C94.4222 18.0435 94.8084 17.998 94.8084 17.998C95.149 17.817 95.6494 17.5887 95.6494 17.5887C95.7404 17.5218 95.8759 17.5432 95.8759 17.5432C96.0114 17.4977 95.8527 17.3835 95.8527 17.3835C95.6239 17.2229 95.4178 17.0321 95.24 16.8163C95.059 16.5211 95.24 16.3847 95.24 16.3847C95.512 16.0654 96.6027 15.3153 96.6027 15.3153ZM97.2433 15.3153C97.391 15.3737 97.5166 15.4769 97.6025 15.6105C97.738 15.9057 97.6935 15.9753 97.6935 15.9753C97.648 16.0663 97.6935 16.2473 97.6935 16.2473C97.5929 16.3088 97.4865 16.3604 97.376 16.4014V16.0384C97.4117 16.0084 97.4402 15.9709 97.4596 15.9285C97.4791 15.8861 97.4889 15.84 97.4883 15.7934C97.4883 15.6411 97.3853 15.5084 97.2563 15.4982L97.2433 15.3153Z" fill="white"/>
<path fill-rule="evenodd" clip-rule="evenodd" d="M102.212 14.6117C102.327 14.1345 102.236 13.6128 102.236 13.6128C102.076 13.2722 101.916 13.2035 101.916 13.2035C101.916 12.2278 101.327 12.0914 101.327 12.0914C101.327 12.2733 101.439 12.523 101.439 12.523C101.485 12.614 101.327 12.4998 101.327 12.4998C101.304 12.1824 101.008 12.0227 101.008 12.0227C100.781 11.8872 100.667 11.7275 100.667 11.7275C100.416 12.1359 101.076 12.5685 101.076 12.5685C100.053 12.523 98.2821 12.886 98.2821 12.886C97.0326 13.1821 96.3281 12.7505 96.3281 12.7505C95.6031 12.4098 95.8751 11.7507 95.8751 11.7507C96.2157 11.0693 96.9649 11.1371 96.9649 11.1371C97.3354 11.1476 97.7027 11.2088 98.0565 11.319C99.1463 11.6142 100.305 11.2736 100.305 11.2736C100.872 11.0016 101.054 10.4335 101.054 10.4335C100.713 10.6841 100.236 10.6377 100.236 10.6377C99.9428 10.9106 98.9867 10.9561 98.9867 10.9561C99.6235 10.7064 99.6012 10.4557 99.6012 10.4557C99.6467 10.297 99.8945 10.0918 99.8945 10.0918C99.5084 10.1605 99.0554 10.5235 99.0554 10.5235C98.7834 10.7286 98.0779 10.7287 98.0779 10.7287C97.9655 10.7741 97.7604 10.7064 97.7604 10.7064C98.2134 10.5699 98.2375 10.388 98.2375 10.388C97.17 10.0928 96.238 10.7519 96.238 10.7519C95.3292 11.5019 95.6031 12.251 95.6031 12.251C95.7609 12.9779 97.0549 13.2044 97.0549 13.2044C98.2589 13.2731 99.6912 13.0689 99.6912 13.0689C100.781 12.9333 101.076 13.0921 101.076 13.0921C101.212 13.183 101.076 13.2044 101.076 13.2044C100.416 13.1134 100.213 13.8858 100.213 13.8858C100.666 13.3863 101.28 13.5228 101.28 13.5228C101.393 13.5441 101.28 13.5683 101.28 13.5683C100.961 13.5228 100.735 13.7279 100.735 13.7279C101.166 13.9999 101.484 13.8858 101.484 13.8858C101.667 13.8403 101.758 13.6593 101.758 13.6593C102.03 14.0668 102.008 14.3861 101.893 14.6126C101.733 14.8846 101.438 14.9988 101.438 14.9988C100.78 15.1584 99.8481 14.8178 99.8481 14.8178C99.5761 14.6822 99.099 14.7036 99.099 14.7036C99.0303 14.6822 98.918 14.6367 98.827 14.6126C98.1456 14.4074 96.873 14.2264 96.873 14.2264L96.9871 14.3861C97.1682 14.4316 97.2591 14.5216 97.2823 14.6126C97.3037 14.7036 97.2591 14.7936 97.2591 14.7936C97.2136 14.9078 97.1449 14.9746 97.1449 14.9746L97.2378 15.1575C97.9646 15.384 97.8272 16.0208 97.8272 16.0208C97.8959 16.588 98.2366 16.8145 98.2366 16.8145C99.0089 17.4959 99.8036 17.3817 99.8036 17.3817C100.077 17.3817 100.123 17.4504 100.123 17.4504C100.395 17.61 100.349 18.3369 100.349 18.3369C100.349 18.6321 100.214 18.9496 100.214 18.9496C100.305 19.1761 100.758 19.0637 100.758 19.0637C100.827 19.0405 100.851 18.9496 100.851 18.9496C100.896 18.814 100.782 18.6776 100.782 18.6776C100.736 18.6089 100.782 18.6321 100.782 18.6321C101.077 18.7676 101.054 19.1092 101.054 19.1092C101.509 18.5402 100.873 18.154 100.873 18.154C100.782 18.1327 100.713 18.1085 100.713 18.1085C100.646 17.8152 100.622 17.2239 100.622 17.2239V17.0642L100.396 16.8136C99.759 16.9732 99.306 16.7467 99.306 16.7467C99.3273 16.6112 99.3273 16.4515 99.3273 16.4515C99.3728 16.0422 99.2364 15.0424 99.2364 15.0424C99.4174 15.1334 100.464 15.3144 100.464 15.3144C100.712 15.4286 101.213 15.4072 101.213 15.4072C101.804 15.5427 101.622 15.9512 101.622 15.9512C102.099 15.565 101.689 15.293 101.689 15.293C102.01 15.1789 102.146 14.9069 102.212 14.6117ZM70.4818 14.8382C70.2775 14.361 70.595 13.7484 70.595 13.7484C71.1854 12.8173 72.0032 12.5899 72.0032 12.5899C72.4349 11.9317 73.094 11.9317 73.094 11.9317C73.003 12.1137 72.8433 12.2724 72.8433 12.2724C73.2518 12.1814 73.6157 11.8407 73.6157 11.8407C73.6157 12.3634 73.1385 12.5676 73.1385 12.5676C74.8874 12.795 77.2722 12.5221 77.2722 12.5221C78.2497 12.3634 78.2033 11.4546 78.2033 11.4546C77.999 10.6368 76.977 11.1139 76.977 11.1139C74.8187 12.3634 73.7744 10.7054 73.7744 10.7054C74.297 10.9097 75.3191 10.9097 75.3191 10.9097C74.9329 10.7509 74.4335 10.1828 74.4335 10.1828C74.7519 10.2283 74.9106 10.3648 74.9106 10.3648C75.4555 10.66 76.0691 10.5922 76.0691 10.5922C75.8872 10.388 75.592 10.0473 75.592 10.0473C75.9559 10.206 76.3188 10.206 76.3188 10.206C76.5463 10.2283 76.7273 10.2515 76.7273 10.2515C77.1134 10.3193 77.3177 10.2515 77.3177 10.2515C78.4762 10.3648 78.6126 11.4323 78.6126 11.4323C78.7259 12.795 77.1589 12.9083 77.1589 12.9083C76.5221 13.0911 73.0021 13.0447 73.0021 13.0447C73.366 13.2035 73.4569 13.5441 73.4569 13.5441C73.5247 13.7038 73.6157 13.818 73.6157 13.818C73.2518 13.8393 72.8888 13.3631 72.8888 13.3631C73.003 13.5896 73.2982 13.9303 73.2982 13.9303C73.094 14.0213 72.6623 13.4987 72.6623 13.4987C71.981 12.9315 71.3906 13.5219 71.3906 13.5219C70.7538 14.0204 70.8679 14.452 70.8679 14.452C70.8657 14.5239 70.8787 14.5955 70.906 14.6621C70.9334 14.7286 70.9745 14.7886 71.0267 14.8382C71.2541 15.112 71.6626 15.0665 71.6626 15.0665C72.0942 15.0665 72.5259 14.9524 72.8888 14.8382C73.1324 14.7719 73.3685 14.6807 73.5934 14.5662C73.6621 14.5663 73.7306 14.574 73.7976 14.5894C74.0018 14.452 74.298 14.4752 74.298 14.4752C75.2968 14.3842 78.1587 13.3381 78.1587 13.3381C78.5458 13.1571 79.2494 12.4302 79.2494 12.4302C79.4991 12.5889 79.6579 13.1803 79.6579 13.1803C79.731 13.1302 79.7865 13.0584 79.8166 12.9751C79.9531 13.4745 80.6344 13.7474 80.6344 13.7474C80.8387 13.7688 80.9983 13.9739 80.9983 13.9739L81.0661 13.7688C81.1571 13.9062 81.8384 14.3833 82.543 14.8363C83.0214 15.164 83.5061 15.4824 83.9967 15.7915C84.6094 15.1102 85.041 15.5177 85.041 15.5177C84.95 15.6087 84.8359 15.5864 84.8359 15.5864C84.5184 15.5632 84.3142 15.7442 84.3142 15.7442C85.0652 15.6319 85.2007 15.8816 85.2007 15.8816C85.3585 16.2445 84.8359 16.4255 84.8359 16.4255C84.8359 15.9271 84.3587 15.9484 84.3587 15.9484C84.456 15.9982 84.5386 16.0725 84.5984 16.164C84.6581 16.2555 84.693 16.361 84.6994 16.4701C84.5397 16.9018 84.1536 16.5629 84.1536 16.5629C84.018 16.4942 83.8129 16.3123 83.8129 16.3123C82.7017 16.2436 81.6333 15.4713 81.6333 15.4713L81.0652 15.7219C80.7559 15.4883 80.5068 15.1844 80.3383 14.8354C80.2706 14.7231 80.2251 14.6321 80.2251 14.6321V14.8354C80.2938 15.1547 80.4971 15.4267 80.4971 15.4267C79.5205 16.5397 77.7716 15.5409 77.7716 15.5409C77.5674 15.4722 76.9306 15.1315 76.9306 15.1315C75.1139 15.1102 74.2729 16.7449 74.2729 16.7449L74.1364 16.9714C74.0009 17.9943 73.6825 17.9944 73.6825 17.9944C73.8412 17.6082 73.456 17.4272 73.456 17.4272C73.1831 17.4727 72.5472 17.4485 72.5472 17.4485C72.1388 18.1754 72.4785 18.698 72.4785 18.698C73.2731 18.6766 72.9324 19.3107 72.9324 19.3107C72.8647 19.5158 72.6827 19.5158 72.6827 19.5158C72.705 18.8577 72.0923 18.9031 72.0923 18.9031C72.614 19.1083 72.5008 19.4248 72.5008 19.4248C72.3653 19.4016 72.2288 19.63 72.2288 19.63C71.4565 19.1529 71.5706 18.245 71.5706 18.245C71.6616 16.6771 72.0023 16.381 72.0023 16.381C72.1165 16.3355 72.161 16.4042 72.161 16.4042C72.5017 16.5639 72.9557 16.4255 72.9557 16.4255C73.1376 16.3801 73.1831 16.018 73.1831 16.018C73.2973 15.3812 73.728 14.8809 73.728 14.8809C73.4328 15.0183 71.7749 15.4499 71.7749 15.4499C71.0025 15.6309 70.7983 16.2891 70.7983 16.2891C70.2989 15.6764 71.0935 15.3357 71.0935 15.3357C70.7538 15.2476 70.5495 15.0665 70.4818 14.8382ZM79.3627 14.3165C79.5678 14.7258 80.1805 15.2485 80.1805 15.2485C80.2483 15.3153 80.3624 15.384 80.3624 15.384C80.317 15.4295 80.2037 15.4295 80.2037 15.4295C79.6811 15.1343 79.3404 14.5207 79.3404 14.5207C79.2262 14.2942 79.3627 14.3165 79.3627 14.3165ZM78.6126 14.7927C78.9301 15.1789 79.0443 15.2698 79.0443 15.2698C79.2717 15.5437 79.5669 15.6792 79.5669 15.6792C78.9765 15.6792 78.6126 15.021 78.6126 15.021C78.5217 14.8382 78.5449 14.7704 78.5449 14.7704L78.6126 14.7927ZM78.9988 14.4975C79.1575 14.9524 79.8389 15.4072 79.8389 15.4072C79.9976 15.4527 79.9531 15.565 79.9531 15.565C79.8166 15.5882 79.7711 15.5195 79.7711 15.5195C79.1585 15.3144 78.9542 14.6349 78.9542 14.6349C78.8401 14.3852 78.9988 14.4975 78.9988 14.4975Z" fill="white"/>
</svg>
